<?xml version="1.0" encoding="UTF-8"?>
<!DOCTYPE svg PUBLIC "-//W3C//DTD SVG 1.1//EN" "http://www.w3.org/Graphics/SVG/1.1/DTD/svg11.dtd">
<!-- Creator: CorelDRAW -->
<svg xmlns="http://www.w3.org/2000/svg" xml:space="preserve" width="12.8437mm" height="18.9291mm" style="shape-rendering:geometricPrecision; text-rendering:geometricPrecision; image-rendering:optimizeQuality; fill-rule:evenodd; clip-rule:evenodd"
viewBox="0 0 12.8436 18.929"
 xmlns:xlink="http://www.w3.org/1999/xlink">
 <defs>
  <style type="text/css">
   <![CDATA[
    .str0 {stroke:#EF5762;stroke-width:0.199998}
    .str1 {stroke:white;stroke-width:0.399997;stroke-linejoin:round}
    .fil2 {fill:none;fill-rule:nonzero}
    .fil0 {fill:#231F1F;fill-rule:nonzero}
    .fil1 {fill:#EF5762;fill-rule:nonzero}
   ]]>
  </style>
 </defs>
 <g id="Art">
  <metadata id="CorelCorpID_0Corel-Layer"/>
  <g id="_216331872">
   <path id="_216331896" class="fil0" d="M4.03437 17.5492l0.496796 0.125099c-0.104099,0.408097 -0.291698,0.719094 -0.562496,0.933693 -0.270098,0.214098 -0.600995,0.320998 -0.991592,0.320998 -0.404697,0 -0.733994,-0.0824994 -0.986992,-0.247198 -0.253798,-0.164399 -0.446597,-0.403197 -0.578595,-0.715294 -0.132399,-0.312498 -0.198398,-0.647995 -0.198398,-1.00619 0,-0.390897 0.0744994,-0.731894 0.224098,-1.02329 0.148899,-0.290698 0.361497,-0.512096 0.636995,-0.662595 0.275898,-0.151599 0.578995,-0.226798 0.910493,-0.226798 0.375197,0 0.691195,0.0956993 0.947093,0.286798 0.256098,0.190999 0.434397,0.459596 0.535196,0.806294l-0.489096 0.115299c-0.0869993,-0.272798 -0.213298,-0.471996 -0.378597,-0.596395 -0.165599,-0.124499 -0.374097,-0.186899 -0.624895,-0.186899 -0.288498,0 -0.529496,0.0689995 -0.722994,0.207198 -0.194098,0.138299 -0.330297,0.323697 -0.408797,0.557096 -0.0780994,0.232498 -0.117699,0.473196 -0.117699,0.720594 0,0.318998 0.0465996,0.597595 0.139499,0.836193 0.0929993,0.237498 0.237698,0.415797 0.433897,0.533596 0.196198,0.117699 0.408797,0.176499 0.637695,0.176499 0.277898,0 0.513696,-0.0801994 0.706594,-0.240398 0.193198,-0.160499 0.323697,-0.398597 0.391797,-0.714294z"/>
   <path id="_216331968" class="fil0" d="M4.96496 17.5055c0,-0.503396 0.139799,-0.876693 0.419697,-1.11899 0.233998,-0.201298 0.518896,-0.302098 0.855293,-0.302098 0.373697,0 0.679695,0.122599 0.916593,0.367797 0.237298,0.244698 0.355797,0.583195 0.355797,1.01489 0,0.349997 -0.0524996,0.625195 -0.157199,0.825494 -0.105299,0.200698 -0.257998,0.356197 -0.458696,0.467396 -0.200098,0.111099 -0.419397,0.166499 -0.656495,0.166499 -0.380497,0 -0.688195,-0.121999 -0.922593,-0.365997 -0.235198,-0.244398 -0.352397,-0.595795 -0.352397,-1.05499zm0.473596 0l0 0c0,0.347997 0.0756994,0.608695 0.227998,0.781794 0.151899,0.173599 0.342997,0.260398 0.573396,0.260398 0.228998,0 0.418897,-0.0870993 0.570796,-0.261298 0.152299,-0.174299 0.227998,-0.439297 0.227998,-0.796194 0,-0.336397 -0.0762994,-0.590795 -0.229498,-0.764494 -0.152399,-0.173299 -0.342397,-0.259798 -0.569296,-0.259798 -0.230398,0 -0.421497,0.0861993 -0.573396,0.258598 -0.152299,0.172799 -0.227998,0.432897 -0.227998,0.780994z"/>
   <path id="_216332040" class="fil0" d="M7.93374 17.5055c0,-0.503396 0.139599,-0.876693 0.419997,-1.11899 0.233998,-0.201298 0.518396,-0.302098 0.854993,-0.302098 0.373897,0 0.679495,0.122599 0.916293,0.367797 0.237298,0.244698 0.356297,0.583195 0.356297,1.01489 0,0.349997 -0.0529996,0.625195 -0.157399,0.825494 -0.105399,0.200698 -0.257998,0.356197 -0.458996,0.467396 -0.199898,0.111099 -0.419097,0.166499 -0.656195,0.166499 -0.380597,0 -0.688195,-0.121999 -0.922793,-0.365997 -0.235198,-0.244398 -0.352197,-0.595795 -0.352197,-1.05499zm0.473796 0l0 0c0,0.347997 0.0754994,0.608695 0.227698,0.781794 0.152099,0.173599 0.343097,0.260398 0.573496,0.260398 0.228898,0 0.418797,-0.0870993 0.570996,-0.261298 0.151799,-0.174299 0.227698,-0.439297 0.227698,-0.796194 0,-0.336397 -0.0761994,-0.590795 -0.229198,-0.764494 -0.152799,-0.173299 -0.342697,-0.259798 -0.569496,-0.259798 -0.230398,0 -0.421397,0.0861993 -0.573496,0.258598 -0.152199,0.172799 -0.227698,0.432897 -0.227698,0.780994z"/>
   <polygon id="_216332112" class="fil0" points="11.0633,18.8651 11.0633,15.1115 11.5241,15.1115 11.5241,18.8651 "/>
  </g>
  <path class="fil1 str0" d="M12.6692 7.38184c-0.530096,3.45107 -3.75807,5.81825 -7.20764,5.28726 -3.45047,-0.530596 -5.81745,-3.75757 -5.28736,-7.20734 0.530996,-3.45077 3.75807,-5.81815 7.20794,-5.28746 3.45017,0.530196 5.81815,3.75747 5.28706,7.20754z"/>
  <path class="fil2 str1" d="M7.44454 6.64825c-0.168699,0.240698 -0.800794,1.05159 -1.15579,0.997892 -0.354597,-0.0546996 -0.714294,-1.01939 -0.801694,-1.29909 -0.281898,-0.812994 -0.451196,-1.88849 -0.320098,-2.73558 0.154499,-1.01189 0.817794,-2.01478 2.02318,-1.82999 1.20539,0.185299 1.53569,1.34159 1.37999,2.35348 -0.129599,0.846893 -0.613295,1.82299 -1.12559,2.51328"/>
  <path class="fil2 str1" d="M5.76776 11.1709c-0.630995,-0.0968992 -1.06779,-0.692395 -0.970892,-1.32289 0.0965992,-0.630895 0.692695,-1.06759 1.32309,-0.970992 0.630995,0.0968992 1.06759,0.693095 0.970392,1.32379 -0.0968992,0.629395 -0.692695,1.06669 -1.32259,0.970092"/>
 </g>
</svg>
