<?xml version="1.0" encoding="UTF-8"?>
<!DOCTYPE svg PUBLIC "-//W3C//DTD SVG 1.1//EN" "http://www.w3.org/Graphics/SVG/1.1/DTD/svg11.dtd">
<!-- Creator: CorelDRAW -->
<svg xmlns="http://www.w3.org/2000/svg" xml:space="preserve" width="23.6372mm" height="18.9972mm" style="shape-rendering:geometricPrecision; text-rendering:geometricPrecision; image-rendering:optimizeQuality; fill-rule:evenodd; clip-rule:evenodd"
viewBox="0 0 23.6372 18.9972"
 xmlns:xlink="http://www.w3.org/1999/xlink">
 <defs>
  <style type="text/css">
   <![CDATA[
    .str0 {stroke:#EF5762;stroke-width:0.3427}
    .str1 {stroke:white;stroke-width:0.4;stroke-linecap:round;stroke-linejoin:round}
    .fil1 {fill:none;fill-rule:nonzero}
    .fil2 {fill:#231F1F;fill-rule:nonzero}
    .fil0 {fill:#EF5762;fill-rule:nonzero}
   ]]>
  </style>
 </defs>
 <g id="Art">
  <metadata id="CorelCorpID_0Corel-Layer"/>
  <path class="fil0" d="M17.9603 6.4919c0,3.491 -2.831,6.3211 -6.323,6.3211 -3.4904,0 -6.3192,-2.8301 -6.3192,-6.3211 0,-3.4902 2.8288,-6.3205 6.3192,-6.3205 3.492,0 6.323,2.8303 6.323,6.3205z"/>
  <path class="fil1 str0" d="M17.9603 6.4919c0,3.491 -2.831,6.3211 -6.323,6.3211 -3.4904,0 -6.3192,-2.8301 -6.3192,-6.3211 0,-3.4902 2.8288,-6.3205 6.3192,-6.3205 3.492,0 6.323,2.8303 6.323,6.3205"/>
  <g id="_216333864">
   <polygon id="_216334056" class="fil2" points="-0,18.9358 -0,15.1821 2.5315,15.1821 2.5315,15.6251 0.4957,15.6251 0.4957,16.7877 2.2572,16.7877 2.2572,17.2304 0.4957,17.2304 0.4957,18.9358 "/>
   <path id="_216334032" class="fil2" d="M4.6558 18.6003c-0.1701,0.145 -0.3339,0.2473 -0.4917,0.3073 -0.1587,0.0597 -0.3276,0.0896 -0.5089,0.0896 -0.2982,0 -0.5286,-0.0726 -0.6894,-0.2192 -0.1596,-0.1453 -0.2396,-0.3324 -0.2396,-0.5592 0,-0.1332 0.0297,-0.255 0.09,-0.3646 0.0617,-0.1104 0.1404,-0.1986 0.2379,-0.2652 0.0981,-0.0666 0.2087,-0.1166 0.3318,-0.1511 0.0909,-0.0241 0.2274,-0.0472 0.4095,-0.069 0.3729,-0.0445 0.6473,-0.0975 0.8223,-0.1587 0.0012,-0.063 0.003,-0.1035 0.003,-0.1204 0,-0.1881 -0.0439,-0.3201 -0.1311,-0.3968 -0.1177,-0.1041 -0.2928,-0.1564 -0.5241,-0.1564 -0.2173,0 -0.3769,0.0381 -0.4815,0.1144 -0.1023,0.0756 -0.1782,0.2099 -0.2284,0.4029l-0.4506 -0.0613c0.0411,-0.1932 0.1087,-0.3489 0.2019,-0.4676 0.0942,-0.1183 0.2295,-0.2098 0.4075,-0.2734 0.1781,-0.0645 0.3831,-0.0965 0.6165,-0.0965 0.2325,0 0.4221,0.0272 0.5663,0.0821 0.1446,0.0547 0.2521,0.1234 0.3205,0.2058 0.0678,0.0829 0.116,0.1875 0.1436,0.3139 0.0142,0.0785 0.0226,0.2202 0.0226,0.4251l0 0.6144c0,0.4287 0.0101,0.6995 0.0285,0.8127 0.0206,0.1136 0.0594,0.2228 0.1169,0.3267l-0.4814 0c-0.0472,-0.096 -0.0778,-0.2074 -0.0921,-0.3355zm-0.0381 -1.0292l0 0c-0.1668,0.0681 -0.4188,0.1263 -0.7527,0.1739 -0.1896,0.0274 -0.3237,0.058 -0.4015,0.0925 -0.0788,0.0341 -0.1392,0.0837 -0.1823,0.1497 -0.043,0.0657 -0.0633,0.1383 -0.0633,0.2189 0,0.1228 0.0461,0.2253 0.1391,0.3073 0.0922,0.0818 0.2295,0.1229 0.4075,0.1229 0.1784,0 0.336,-0.039 0.4742,-0.1163 0.1386,-0.0778 0.24,-0.1843 0.3045,-0.319 0.0499,-0.104 0.0745,-0.2577 0.0745,-0.4607l0 -0.1692z"/>
   <path id="_216334200" class="fil2" d="M6.3966 18.9358l-1.0341 -2.719 0.4854 0 0.5835 1.6284c0.0636,0.1753 0.1219,0.3582 0.1743,0.5479 0.0409,-0.1437 0.0984,-0.316 0.172,-0.5173l0.6041 -1.659 0.4732 0 -1.0282 2.719 -0.4302 0z"/>
   <path id="_216334176" class="fil2" d="M7.9594 17.576c0,-0.5034 0.1403,-0.8768 0.42,-1.119 0.2346,-0.2013 0.5193,-0.3021 0.8562,-0.3021 0.3728,0 0.6789,0.1225 0.9156,0.3678 0.2375,0.2446 0.3564,0.5832 0.3564,1.0149 0,0.3499 -0.0532,0.6252 -0.1578,0.8254 -0.1044,0.2007 -0.2581,0.3563 -0.4587,0.4674 -0.1998,0.1112 -0.4189,0.1665 -0.6555,0.1665 -0.3811,0 -0.6882,-0.1219 -0.924,-0.366 -0.2341,-0.2443 -0.3522,-0.5958 -0.3522,-1.0549zm0.4742 0l0 0c0,0.348 0.0757,0.6087 0.2286,0.7818 0.1516,0.1735 0.3418,0.2604 0.5734,0.2604 0.2283,0 0.4176,-0.0872 0.5705,-0.2613 0.1525,-0.1743 0.2283,-0.4394 0.2283,-0.7962 0,-0.3365 -0.0767,-0.5909 -0.2292,-0.7646 -0.1538,-0.1732 -0.3434,-0.2598 -0.5696,-0.2598 -0.2316,0 -0.4218,0.0863 -0.5734,0.2586 -0.1529,0.1728 -0.2286,0.4329 -0.2286,0.7811z"/>
   <path id="_216334320" class="fil2" d="M12.8817 18.9358l0 -0.3994c-0.211,0.307 -0.4989,0.4608 -0.8623,0.4608 -0.1598,0 -0.3106,-0.0306 -0.4499,-0.0923 -0.1383,-0.0615 -0.2426,-0.1387 -0.3092,-0.2313 -0.0675,-0.0933 -0.1156,-0.2074 -0.1423,-0.3421 -0.0185,-0.0906 -0.0287,-0.2339 -0.0287,-0.4301l0 -1.6846 0.4608 0 0 1.5079c0,0.2406 0.0102,0.4029 0.0285,0.4865 0.029,0.1212 0.0905,0.2166 0.1847,0.285 0.0939,0.0699 0.2099,0.1041 0.3482,0.1041 0.1381,0 0.268,-0.0354 0.3891,-0.1059 0.1207,-0.0713 0.2068,-0.1676 0.2571,-0.2898 0.0499,-0.1218 0.0759,-0.2991 0.0759,-0.5312l0 -1.4566 0.4608 0 0 2.719 -0.4127 0z"/>
   <path id="_216334392" class="fil2" d="M14.0634 18.9358l0 -2.719 0.4158 0 0 0.412c0.1056,-0.193 0.2028,-0.3199 0.2928,-0.3814 0.0893,-0.0615 0.1886,-0.0923 0.2949,-0.0923 0.1559,0 0.3137,0.0497 0.4742,0.1487l-0.1587 0.4275c-0.1127,-0.0666 -0.225,-0.0999 -0.3378,-0.0999 -0.1004,0 -0.1905,0.0303 -0.2714,0.0913 -0.0811,0.0603 -0.1374,0.1442 -0.1711,0.2517 -0.0512,0.1638 -0.0777,0.3431 -0.0777,0.5378l0 1.4236 -0.461 0z"/>
   <path id="_216334488" class="fil2" d="M15.87 15.7122l0 -0.5301 0.4611 0 0 0.5301 -0.4611 0zm0 3.2235l0 0 0 -2.719 0.4611 0 0 2.719 -0.4611 0z"/>
   <path id="_216334464" class="fil2" d="M18.0914 18.5236l0.0666 0.407c-0.129,0.0273 -0.2459,0.0409 -0.3485,0.0409 -0.1678,0 -0.2968,-0.0264 -0.3891,-0.0793 -0.0921,-0.0527 -0.1575,-0.1224 -0.1944,-0.2084 -0.0369,-0.0865 -0.0564,-0.2679 -0.0564,-0.5443l0 -1.5645 -0.3381 0 0 -0.3582 0.3381 0 0 -0.6734 0.4578 -0.2764 0 0.9498 0.464 0 0 0.3582 -0.464 0 0 1.5901c0,0.1316 0.0083,0.216 0.0246,0.2535 0.0164,0.0375 0.0428,0.0675 0.08,0.0896 0.0366,0.0219 0.0889,0.0333 0.1575,0.0333 0.0511,0 0.1189,-0.006 0.2019,-0.0179z"/>
   <path id="_216334608" class="fil2" d="M20.456 18.0601l0.4752 0.0588c-0.0746,0.278 -0.213,0.4941 -0.4167,0.6479 -0.204,0.1536 -0.462,0.2304 -0.7782,0.2304 -0.3987,0 -0.7142,-0.1223 -0.9455,-0.3678 -0.2335,-0.2447 -0.3504,-0.5883 -0.3504,-1.0301 0,-0.4575 0.1181,-0.8127 0.3534,-1.0651 0.2358,-0.2526 0.542,-0.3791 0.9168,-0.3791 0.3636,0 0.6606,0.1241 0.891,0.3714 0.2304,0.2474 0.3459,0.5954 0.3459,1.0446 0,0.027 -0.0019,0.0681 -0.0028,0.1227l-2.028 0c0.0175,0.2988 0.1012,0.5274 0.2532,0.6864 0.1525,0.1589 0.3418,0.2382 0.5692,0.2382 0.168,0 0.3134,-0.0445 0.4323,-0.1332 0.1187,-0.0886 0.2141,-0.2304 0.2846,-0.4251zm-1.5135 -0.7449l0 0 1.5175 0c-0.0204,-0.2289 -0.0778,-0.4008 -0.1738,-0.5146 -0.1466,-0.1778 -0.336,-0.2664 -0.5705,-0.2664 -0.2122,0 -0.3903,0.0705 -0.5337,0.2125 -0.1444,0.1419 -0.2244,0.3312 -0.2395,0.5685z"/>
   <path id="_216334680" class="fil2" d="M21.3779 18.124l0.4569 -0.0717c0.0244,0.1829 0.0963,0.3227 0.2128,0.4202 0.1169,0.0972 0.2807,0.1459 0.4905,0.1459 0.212,0 0.3687,-0.0432 0.4712,-0.1293 0.1023,-0.0865 0.1537,-0.1873 0.1537,-0.3036 0,-0.1039 -0.0451,-0.1857 -0.1362,-0.2458 -0.0627,-0.041 -0.2193,-0.093 -0.4711,-0.156 -0.338,-0.0857 -0.5717,-0.1593 -0.7028,-0.2213 -0.1299,-0.0624 -0.2292,-0.1486 -0.297,-0.2592 -0.0675,-0.1093 -0.1002,-0.2316 -0.1002,-0.3643 0,-0.1217 0.0266,-0.2337 0.083,-0.3372 0.0553,-0.1029 0.1302,-0.189 0.2262,-0.2571 0.0717,-0.0527 0.1701,-0.0978 0.2932,-0.1341 0.1236,-0.0369 0.2559,-0.0554 0.3983,-0.0554 0.214,0 0.4005,0.0308 0.5622,0.0923 0.1608,0.0615 0.2806,0.1444 0.3564,0.25 0.0778,0.1043 0.1299,0.2453 0.1599,0.4209l-0.4506 0.0615c-0.0206,-0.1399 -0.08,-0.2494 -0.1784,-0.3279 -0.0984,-0.0781 -0.2376,-0.1177 -0.4156,-0.1177 -0.2123,0 -0.3627,0.0348 -0.4539,0.105 -0.0911,0.0702 -0.1362,0.1522 -0.1362,0.2458 0,0.0597 0.0193,0.1136 0.0574,0.1611 0.0368,0.0497 0.0963,0.0906 0.176,0.123 0.0463,0.0167 0.1825,0.0563 0.4078,0.1178 0.3255,0.0871 0.5529,0.1582 0.6819,0.214 0.129,0.0554 0.2295,0.1356 0.3033,0.2417 0.0737,0.1062 0.1106,0.2373 0.1106,0.3942 0,0.1537 -0.0449,0.2982 -0.1353,0.4344 -0.0888,0.1351 -0.219,0.2407 -0.387,0.3144 -0.1701,0.0747 -0.3606,0.1116 -0.5735,0.1116 -0.3543,0 -0.6228,-0.0732 -0.808,-0.2204 -0.1854,-0.1468 -0.3044,-0.3645 -0.3555,-0.6528z"/>
  </g>
  <path class="fil1 str1" d="M11.7754 4.2461c0.1517,-0.3381 0.8993,-1.0569 1.0549,-1.3336 0.3061,-0.5544 0.0532,-1.3103 0.8071,-1.3103 0.3338,0 1.359,0.8454 -0.256,3.0339 0.9382,-0.115 2.0328,-0.0936 2.4763,0 0.2643,0.0579 0.5901,0.3186 0.5901,0.6459 0,0.3251 -0.1344,0.5165 -0.3544,0.6515 0.2824,0.0879 0.4575,0.3337 0.4575,0.6613 0,0.3261 -0.2036,0.5244 -0.4985,0.6335 0.2087,0.1044 0.4146,0.322 0.4146,0.6493 0,0.3246 -0.2559,0.5987 -0.6123,0.6453 0.2375,0.1121 0.3603,0.2652 0.3603,0.4593 0,0.6149 -0.5265,0.7661 -0.9471,0.8824 -0.4251,0.115 -1.0203,0.124 -1.8169,0.069 -0.7967,-0.0554 -1.8179,-0.4204 -2.9588,-0.5524 0,-0.9918 0,-3.627 0,-3.627 0,0 0.8205,-0.4722 1.2832,-1.5081"/>
  <path class="fil1 str1" d="M7.1782 9.5905c0,0.0912 0.0858,0.1644 0.1872,0.1644"/>
  <line class="fil1 str1" x1="7.3654" y1="9.7549" x2="9.2377" y2= "9.7549" />
  <path class="fil1 str1" d="M9.2377 9.7549c0.1034,0 0.1893,-0.0732 0.1893,-0.1644"/>
  <line class="fil1 str1" x1="9.427" y1="9.5905" x2="9.427" y2= "5.7325" />
  <path class="fil1 str1" d="M9.427 5.7325c0,-0.0902 -0.0859,-0.1632 -0.1893,-0.1632"/>
  <line class="fil1 str1" x1="9.2377" y1="5.5693" x2="7.3654" y2= "5.5693" />
  <path class="fil1 str1" d="M7.3654 5.5693c-0.1014,0 -0.1872,0.073 -0.1872,0.1632"/>
  <line class="fil1 str1" x1="7.1782" y1="5.7325" x2="7.1782" y2= "9.5905" />
 </g>
</svg>
