<?xml version="1.0" encoding="UTF-8"?>
<!DOCTYPE svg PUBLIC "-//W3C//DTD SVG 1.1//EN" "http://www.w3.org/Graphics/SVG/1.1/DTD/svg11.dtd">
<!-- Creator: CorelDRAW -->
<svg xmlns="http://www.w3.org/2000/svg" xml:space="preserve" width="12.9847mm" height="19.2218mm" style="shape-rendering:geometricPrecision; text-rendering:geometricPrecision; image-rendering:optimizeQuality; fill-rule:evenodd; clip-rule:evenodd"
viewBox="0 0 12.9848 19.2219"
 xmlns:xlink="http://www.w3.org/1999/xlink">
 <defs>
  <style type="text/css">
   <![CDATA[
    .str0 {stroke:#EF5762;stroke-width:0.200002}
    .str1 {stroke:#EF5762;stroke-width:0.342703}
    .str3 {stroke:white;stroke-width:0.400003}
    .str2 {stroke:white;stroke-width:0.400003;stroke-linecap:round;stroke-linejoin:round}
    .fil2 {fill:none;fill-rule:nonzero}
    .fil0 {fill:#231F1F;fill-rule:nonzero}
    .fil1 {fill:#EF5762;fill-rule:nonzero}
   ]]>
  </style>
 </defs>
 <g id="Art">
  <metadata id="CorelCorpID_0Corel-Layer"/>
  <g id="_216334752">
   <polygon id="_216334872" class="fil0" points="2.45112,19.1606 2.45112,15.4071 4.98334,15.4071 4.98334,15.8499 2.94782,15.8499 2.94782,17.0126 4.70924,17.0126 4.70924,17.4551 2.94782,17.4551 2.94782,19.1606 "/>
   <path id="_216334848" class="fil0" d="M7.19456 19.1606l0 -0.399503c-0.211702,0.307102 -0.499404,0.460804 -0.863007,0.460804 -0.160201,0 -0.310402,-0.0306002 -0.449603,-0.0922007 -0.138701,-0.0615005 -0.242202,-0.138801 -0.309402,-0.231302 -0.0674005,-0.0933007 -0.115101,-0.207502 -0.142101,-0.342203 -0.0190001,-0.0906007 -0.0282002,-0.233802 -0.0282002,-0.430003l0 -1.68471 0.460804 0 0 1.50801c0,0.240602 0.00920007,0.402903 0.0282002,0.486404 0.0291002,0.121201 0.0906007,0.216602 0.184401,0.285002 0.0936007,0.0699005 0.209802,0.104101 0.348003,0.104101 0.138301,0 0.267902,-0.0354003 0.389303,-0.105901 0.121201,-0.0712005 0.206802,-0.167501 0.257102,-0.289802 0.0508004,-0.121801 0.0757006,-0.299102 0.0757006,-0.531104l0 -1.45671 0.461104 0 0 2.71912 -0.412303 0z"/>
   <path id="_216334992" class="fil0" d="M8.38096 19.1606l0 -2.71912 0.414603 0 0 0.386403c0.199802,-0.298502 0.488104,-0.448003 0.865307,-0.448003 0.163801,0 0.314602,0.0298002 0.452303,0.0880007 0.137201,0.0594005 0.240102,0.136501 0.308202,0.232202 0.0681005,0.0957007 0.116301,0.208702 0.143601,0.340403 0.0166001,0.0856007 0.0256002,0.234602 0.0256002,0.448303l0 1.67181 -0.461104 0 0 -1.65391c0,-0.188301 -0.0178001,-0.328203 -0.0535004,-0.421103 -0.0360003,-0.0933007 -0.0996008,-0.167501 -0.191101,-0.223202 -0.0914007,-0.0553004 -0.198302,-0.0829006 -0.321202,-0.0829006 -0.196202,0 -0.365503,0.0624005 -0.508604,0.186701 -0.142101,0.124501 -0.213502,0.361203 -0.213502,0.709205l0 1.48521 -0.460604 0z"/>
  </g>
  <g id="_216336048">
   <g>
    <path id="_216336120" class="fil1 str0" d="M12.8134 6.49235c0,3.49163 -2.83062,6.32165 -6.32105,6.32165 -3.49023,0 -6.32095,-2.83002 -6.32095,-6.32165 0,-3.49053 2.83072,-6.32095 6.32095,-6.32095 3.49043,0 6.32105,2.83042 6.32105,6.32095z"/>
    <path id="_216336192" class="fil2 str1" d="M12.8134 6.49235c0,3.49163 -2.83062,6.32165 -6.32105,6.32165 -3.49023,0 -6.32095,-2.83002 -6.32095,-6.32165 0,-3.49053 2.83072,-6.32095 6.32095,-6.32095 3.49043,0 6.32105,2.83042 6.32105,6.32095"/>
   </g>
  </g>
  <path class="fil2 str2" d="M2.46402 7.96686c0.754106,1.84221 2.72212,2.96392 4.75464,2.57912 2.02622,-0.382803 3.44633,-2.13622 3.48413,-4.11963"/>
  <line class="fil2 str2" x1="5.70414" y1="4.38373" x2="4.14993" y2= "4.38373" />
  <path class="fil2 str3" d="M7.64466 5.13044c-0.405603,-0.0621005 -0.686705,-0.444903 -0.624305,-0.850607 0.0624005,-0.405003 0.446003,-0.685405 0.850507,-0.623105 0.404603,0.0624005 0.686105,0.444903 0.623705,0.849907 -0.0624005,0.403903 -0.445303,0.686105 -0.849907,0.623805"/>
 </g>
</svg>
