<?xml version="1.0" encoding="UTF-8"?>
<!DOCTYPE svg PUBLIC "-//W3C//DTD SVG 1.1//EN" "http://www.w3.org/Graphics/SVG/1.1/DTD/svg11.dtd">
<!-- Creator: CorelDRAW -->
<svg xmlns="http://www.w3.org/2000/svg" xml:space="preserve" width="21.8578mm" height="6.44mm" style="shape-rendering:geometricPrecision; text-rendering:geometricPrecision; image-rendering:optimizeQuality; fill-rule:evenodd; clip-rule:evenodd"
viewBox="0 0 8.1698 2.40708"
 xmlns:xlink="http://www.w3.org/1999/xlink">
 <defs>
  <style type="text/css">
   <![CDATA[
    .fil1 {fill:white}
    .fil0 {fill:#00B3CE;fill-opacity:0.749020}
   ]]>
  </style>
 </defs>
 <g id="Layer_x0020_1">
  <metadata id="CorelCorpID_0Corel-Layer"/>
  <g id="Like">
   <g>
    <path id="_739093320" class="fil0" d="M8.1698 2.20076c0,0.113551 -0.0926951,0.206321 -0.206321,0.206321l-7.75716 0c-0.113477,0 -0.206321,-0.0926951 -0.206321,-0.206321l0 -1.99444c0,-0.113477 0.0926577,-0.206321 0.206321,-0.206321l7.75716 0.000149508c0.113477,0 0.206321,0.0926951 0.206321,0.206321l0 1.99429z"/>
   </g>
   <path id="_739093872" class="fil1" d="M1.45116 0.914729c0.0284439,-0.0633915 0.169318,-0.19836 0.198397,-0.250277 0.0573738,-0.103908 0.00983016,-0.246277 0.15119,-0.246277 0.0627561,0 0.255136,0.158815 -0.0475436,0.569776 0.175934,-0.0214544 0.381283,-0.0174551 0.464485,0 0.0498984,0.0108393 0.111309,0.0597659 0.111309,0.121139 0,0.0609993 -0.0257154,0.0970682 -0.0670171,0.122522 0.0531502,0.0164459 0.0862289,0.0627561 0.0862289,0.124391 0,0.0609993 -0.0386852,0.0983016 -0.094078,0.118896 0.0392833,0.0198098 0.0778564,0.0603639 0.0778564,0.121737 0,0.0610367 -0.048179,0.112542 -0.115159,0.121513 0.0445161,0.021118 0.0679889,0.049562 0.0679889,0.0862289 0,0.115532 -0.0986754,0.143976 -0.17855,0.165431 -0.0798374,0.0214544 -0.191483,0.0234354 -0.340692,0.0132315 -0.149583,-0.0106151 -0.341365,-0.0788656 -0.555946,-0.103684 0,-0.186138 0,-0.680935 0,-0.680935 0,0 0.154965,-0.089219 0.24153,-0.283692zm-0.736178 1.03886c0,0.0194734 0.0158479,0.0349475 0.0349102,0.0349475l0.351942 0c0.0194734,0 0.0349475,-0.0154741 0.0349475,-0.0349475l0 -0.826892c0,-0.0194734 -0.0158479,-0.0349475 -0.0349475,-0.0349475l-0.351793 -0.000112131c-0.0194734,0 -0.0349475,0.0158479 -0.0349475,0.0349102l-0.000112131 0.827042z"/>
   <g>
    <polygon id="_739093152" class="fil1" points="3.36076,1.90044 3.36076,0.494274 3.64695,0.494162 3.64695,1.66141 4.35858,1.66141 4.35858,1.90044 "/>
    <path id="_739094256" class="fil1" d="M4.55107 0.734197l0 -0.25151 0.271619 0 0 0.25151 -0.271619 0zm0 1.16624l0 -1.0269 0.271619 0 0 1.0269 -0.271619 0z"/>
    <polygon id="_501056944" class="fil1" points="5.08141,1.90044 5.08141,0.482687 5.35314,0.482687 5.35314,1.23498 5.67141,0.873165 6.00601,0.873165 5.65507,1.24847 6.03135,1.90044 5.73801,1.90044 5.47989,1.43932 5.35314,1.5717 5.35314,1.90044 "/>
    <path id="_501056872" class="fil1" d="M6.77751 1.57357l0.270722 0.0455252c-0.0346485,0.0993108 -0.0898171,0.174925 -0.165057,0.226804 -0.0752026,0.0519167 -0.169019,0.0778564 -0.281935,0.0778564 -0.17855,0 -0.310641,-0.058383 -0.396496,-0.174887 -0.0676151,-0.0934426 -0.101666,-0.211591 -0.101666,-0.353849 0,-0.17029 0.0445161,-0.30339 0.133361,-0.39971 0.0888452,-0.0963207 0.20135,-0.144612 0.337365,-0.144612 0.152797,0 0.273338,0.0505338 0.361772,0.151228 0.0884715,0.100694 0.130745,0.25551 0.126783,0.463737l-0.680935 0c0.00198098,0.0805849 0.0238092,0.143229 0.0657462,0.188119 0.0418997,0.0449272 0.0940407,0.0673908 0.156797,0.0673908 0.0425725,0 0.0782302,-0.0116243 0.10731,-0.0346859 0.0290793,-0.023099 0.0513934,-0.0614105 0.0662321,-0.112916zm0.0154741 -0.274609c-0.00198098,-0.0786039 -0.0220898,-0.138332 -0.0609993,-0.17926 -0.0389095,-0.0409279 -0.0858177,-0.0613731 -0.14121,-0.0613731 -0.0593921,0 -0.108319,0.0214544 -0.146854,0.0647371 -0.0385731,0.0432826 -0.0577849,0.102039 -0.0571495,0.175896l0.406214 0z"/>
   </g>
  </g>
 </g>
</svg>
