<?xml version="1.0" encoding="UTF-8"?>
<!DOCTYPE svg PUBLIC "-//W3C//DTD SVG 1.1//EN" "http://www.w3.org/Graphics/SVG/1.1/DTD/svg11.dtd">
<!-- Creator: CorelDRAW -->
<svg xmlns="http://www.w3.org/2000/svg" xml:space="preserve" width="85.0531mm" height="16.6962mm" style="shape-rendering:geometricPrecision; text-rendering:geometricPrecision; image-rendering:optimizeQuality; fill-rule:evenodd; clip-rule:evenodd"
viewBox="0 0 85.0534 16.6963"
 xmlns:xlink="http://www.w3.org/1999/xlink">
 <defs>
  <style type="text/css">
   <![CDATA[
    .fil2 {fill:#003D4F;fill-rule:nonzero}
    .fil1 {fill:#00B3CD;fill-rule:nonzero}
    .fil4 {fill:#231F1F;fill-rule:nonzero}
    .fil0 {fill:#EF5762;fill-rule:nonzero}
    .fil3 {fill:white;fill-rule:nonzero}
   ]]>
  </style>
 </defs>
 <g id="Art">
  <metadata id="CorelCorpID_0Corel-Layer"/>
  <g id="_216788616">
   <g>
    <path id="_216788664" class="fil0" d="M39.6785 2.69991c-0.941303,0 -1.83451,0.179101 -2.64981,0.499702 -1.4168,-1.96491 -3.81521,-3.19931 -6.53312,-3.19931 -3.37811,0 -6.25302,1.86511 -7.71853,4.66692 1.1184,1.1509 1.79091,2.72361 1.79091,4.51302 0,1.68981 -0.509302,3.20641 -1.3792,4.42392 1.3904,1.91101 3.67691,3.09211 6.42382,3.09211 1.92371,0 3.68921,-0.608702 5.12312,-1.66321 1.1346,0.960503 2.62651,1.52711 4.30632,1.52711 4.14001,0 7.26243,-3.17261 7.26243,-7.37993 0,-3.69461 -2.84851,-6.48032 -6.62592,-6.48032z"/>
    <path id="_216788760" class="fil1" d="M22.7773 4.66692c-1.1914,-1.2237 -2.88771,-1.96731 -4.83372,-1.96731 -0.941403,0 -1.83371,0.179101 -2.65081,0.499702 -1.4161,-1.96491 -3.81481,-3.19931 -6.53242,-3.19931 -4.91252,0 -8.76033,3.94321 -8.76033,8.97743 0,4.47202 3.31251,7.71853 7.87633,7.71853 1.92441,0 3.68881,-0.608702 5.12332,-1.66321 1.1348,0.960503 2.62801,1.52711 4.30752,1.52711 2.47691,0 4.58332,-1.1424 5.88182,-2.95601 -0.921203,-1.2645 -1.45321,-2.84561 -1.45321,-4.62642 0,-1.57251 0.376101,-3.03771 1.0415,-4.31052z"/>
    <path id="_216271504" class="fil1" d="M22.7773 4.66692c-0.665402,1.2728 -1.0415,2.73801 -1.0415,4.31052 0,1.78081 0.532002,3.36191 1.45321,4.62642 0.869903,-1.2175 1.3792,-2.73411 1.3792,-4.42392 0,-1.78941 -0.672502,-3.36211 -1.79091,-4.51302z"/>
    <path id="_216273688" class="fil2" d="M22.7773 4.66692c-0.665402,1.2728 -1.0415,2.73801 -1.0415,4.31052 0,1.78081 0.532002,3.36191 1.45321,4.62642 0.869903,-1.2175 1.3792,-2.73411 1.3792,-4.42392 0,-1.78941 -0.672502,-3.36211 -1.79091,-4.51302z"/>
   </g>
   <path id="_216788856" class="fil3" d="M7.08162 8.35393l6.66092 0c-0.347601,3.23031 -2.76691,5.48962 -5.86622,5.48962 -2.98261,0 -5.02502,-1.98541 -5.02502,-4.86662 0,-3.47531 2.56391,-6.12612 5.90902,-6.12612 2.44771,0 4.46052,1.46291 4.92302,3.59141l-1.67891 0c-0.521202,-1.3904 -1.72261,-2.17121 -3.30171,-2.17121 -2.38971,0 -4.24341,2.02671 -4.24341,4.64762 0,2.13001 1.3457,3.50591 3.41701,3.50591 1.76781,0 3.18681,-0.985803 3.81011,-2.65081l-4.88072 0 0.275901 -1.41981z"/>
   <path id="_216326136" class="fil3" d="M21.8525 9.17993c0,2.72291 -1.89621,4.66412 -4.54532,4.66412 -2.24561,0 -3.83911,-1.57841 -3.83911,-3.79521 0,-2.64881 1.91161,-4.63362 4.47552,-4.63362 2.27381,0 3.90891,1.57851 3.90891,3.76471zm-6.82042 0.810503l0 0c0,1.41971 0.970803,2.43461 2.33131,2.43461 1.68011,0 2.92611,-1.319 2.92611,-3.08451 0,-1.49161 -0.970403,-2.50591 -2.39011,-2.50591 -1.65011,0 -2.86731,1.3317 -2.86731,3.15581z"/>
   <path id="_216326208" class="fil3" d="M28.817 8.35393l6.66162 0c-0.348601,3.23031 -2.76621,5.48962 -5.86582,5.48962 -2.98371,0 -5.02542,-1.98541 -5.02542,-4.86662 0,-3.47531 2.56401,-6.12612 5.90842,-6.12612 2.44691,0 4.46082,1.46291 4.92502,3.59141l-1.68021 0c-0.522302,-1.3904 -1.72401,-2.17121 -3.30211,-2.17121 -2.39111,0 -4.24411,2.02671 -4.24411,4.64762 0,2.13001 1.3478,3.50591 3.41841,3.50591 1.76651,0 3.18611,-0.985803 3.80931,-2.65081l-4.88132 0 0.276201 -1.41981z"/>
   <path id="_216326280" class="fil3" d="M43.5896 9.17993c0,2.72291 -1.89661,4.66412 -4.54702,4.66412 -2.24561,0 -3.83851,-1.57841 -3.83851,-3.79521 0,-2.64881 1.91201,-4.63362 4.47502,-4.63362 2.27301,0 3.91051,1.57851 3.91051,3.76471zm-6.82152 0.810503l0 0c0,1.41971 0.970903,2.43461 2.33141,2.43461 1.67911,0 2.92611,-1.319 2.92611,-3.08451 0,-1.49161 -0.970203,-2.50591 -2.38901,-2.50591 -1.65191,0 -2.86851,1.3317 -2.86851,3.15581z"/>
  </g>
  <g id="_216326352">
   <polygon id="_216326400" class="fil4" points="53.8736,2.83891 56.4696,11.1489 58.0806,2.83891 59.9906,2.83891 57.8716,13.7749 55.3056,13.7749 52.7246,5.52492 51.1126,13.7749 49.2036,13.7749 51.3376,2.83891 "/>
   <path id="_216326376" class="fil4" d="M67.6736 11.2249c-0.671802,1.70131 -2.26811,2.71491 -4.25121,2.71491 -2.43341,0 -4.17721,-1.65601 -4.17721,-3.96781 0,-2.67141 2.01361,-4.67032 4.69782,-4.67032 2.40161,0 4.13391,1.64241 4.13391,3.93941 0,0.326601 -0.0317001,0.597102 -0.1202,1.0741l-6.80332 0c0.1054,1.1628 1.0596,1.98241 2.26901,1.98241 0.790503,0 1.49021,-0.372001 2.02731,-1.0727l2.22391 0zm-3.70021 -4.28082l0 0c-1.223,0 -2.20851,0.715003 -2.59591,1.90891l4.77432 0c-0.1189,-1.1643 -0.970203,-1.90891 -2.17841,-1.90891z"/>
   <polygon id="_216326568" class="fil4" points="70.2536,5.46592 70.5966,11.5679 73.2377,5.46592 75.0727,5.46592 75.4147,11.5679 78.0877,5.46592 79.9667,5.46592 76.0127,13.7749 74.0137,13.7749 73.6857,7.88193 71.1037,13.7749 69.1336,13.7749 68.4346,5.46592 "/>
   <path id="_216326544" class="fil4" d="M80.9057 11.0609c-0.0442002,0.0885003 -0.0587002,0.163701 -0.0587002,0.282701 0,0.537702 0.343101,0.880603 0.895603,0.880603 0.506102,0 0.894903,-0.342901 0.894903,-0.806503 0,-0.372601 -0.254501,-0.700402 -0.731503,-0.954603l-0.507102 -0.268701c-1.2392,-0.656102 -1.73101,-1.2961 -1.73101,-2.28191 0,-1.53631 1.1496,-2.61111 2.80501,-2.61111 1.47651,0 2.58051,0.910003 2.58051,2.14921 0,0.0737003 -0.0145001,0.237801 -0.0289001,0.402201l-1.93971 0c0.0146001,-0.0889003 0.0297001,-0.178901 0.0297001,-0.208601 0,-0.417701 -0.313601,-0.700402 -0.746603,-0.700402 -0.446102,0 -0.759403,0.296501 -0.759403,0.700402 0,0.343701 0.268201,0.656402 0.864403,0.984503 1.71631,0.924103 2.17891,1.47641 2.17891,2.59591 0,1.56671 -1.2401,2.71491 -2.92501,2.71491 -1.61181,0 -2.80481,-0.984503 -2.80481,-2.31321 0,-0.118 0.0295001,-0.341401 0.0593002,-0.565402l1.92441 0z"/>
  </g>
 </g>
</svg>
