<?xml version="1.0" encoding="UTF-8"?>
<!DOCTYPE svg PUBLIC "-//W3C//DTD SVG 1.1//EN" "http://www.w3.org/Graphics/SVG/1.1/DTD/svg11.dtd">
<!-- Creator: CorelDRAW -->
<svg xmlns="http://www.w3.org/2000/svg" xml:space="preserve" width="12.9847mm" height="19.2224mm" style="shape-rendering:geometricPrecision; text-rendering:geometricPrecision; image-rendering:optimizeQuality; fill-rule:evenodd; clip-rule:evenodd"
viewBox="0 0 12.9608 19.1871"
 xmlns:xlink="http://www.w3.org/1999/xlink">
 <defs>
  <style type="text/css">
   <![CDATA[
    .str0 {stroke:#00B3CD;stroke-width:0.34207}
    .str1 {stroke:white;stroke-width:0.399265;stroke-linejoin:round}
    .str2 {stroke:white;stroke-width:0.399265;stroke-linecap:round;stroke-linejoin:round}
    .fil2 {fill:none;fill-rule:nonzero}
    .fil1 {fill:#00B3CD;fill-rule:nonzero}
    .fil0 {fill:#231F1F;fill-rule:nonzero}
   ]]>
  </style>
 </defs>
 <g id="Art">
  <metadata id="CorelCorpID_0Corel-Layer"/>
  <g id="_216335088">
   <polygon id="_216335136" class="fil0" points="0.217899,19.126 0.217899,15.3789 0.726962,15.3789 2.69434,18.3205 2.69434,15.3789 3.16947,15.3789 3.16947,19.126 2.6614,19.126 0.693024,16.1814 0.693024,19.126 "/>
   <path id="_216335112" class="fil0" d="M5.85452 18.2516l0.475425 0.058692c-0.0751617,0.277389 -0.213707,0.493192 -0.416733,0.64661 -0.202827,0.153318 -0.461451,0.229977 -0.77677,0.229977 -0.397369,0 -0.712189,-0.121975 -0.944162,-0.367124 -0.232971,-0.244151 -0.348958,-0.587219 -0.348958,-1.02811 0,-0.456659 0.117484,-0.811207 0.352451,-1.06324 0.235367,-0.252136 0.540305,-0.378304 0.915116,-0.378304 0.362633,0 0.659386,0.123772 0.889363,0.370718 0.229977,0.246846 0.345065,0.594206 0.345065,1.04268 0,0.0269504 -0.0011978,0.0679749 -0.00269504,0.122475l-2.02397 0c0.0166693,0.298251 0.101214,0.526431 0.252735,0.685139 0.15202,0.158508 0.340972,0.237762 0.567456,0.237762 0.168789,0 0.312924,-0.0445181 0.432005,-0.132955 0.118981,-0.088537 0.213607,-0.229977 0.283678,-0.424319zm-1.51042 -0.743531l0 0 1.51541 0c-0.0203625,-0.228479 -0.0780563,-0.400064 -0.173581,-0.513754 -0.14683,-0.177374 -0.336381,-0.265911 -0.569951,-0.265911 -0.211012,0 -0.388984,0.0703705 -0.533219,0.212209 -0.143735,0.141639 -0.223189,0.330592 -0.238661,0.567456z"/>
   <path id="_216335256" class="fil0" d="M7.46057 19.126l-0.830471 -2.714 0.475325 0 0.431805 1.56642 0.161103 0.582727c0.00648806,-0.0290465 0.0536013,-0.215803 0.140641,-0.55967l0.431805 -1.58947 0.47293 0 0.406252 1.574 0.135451 0.518645 0.155913 -0.523536 0.464844 -1.56911 0.447576 0 -0.848638 2.714 -0.477821 0 -0.431905 -1.62541 -0.104807 -0.462648 -0.549489 2.08806 -0.480516 0z"/>
   <path id="_216335328" class="fil0" d="M10.6078 18.3155l0.455062 -0.0715683c0.0254532,0.182564 0.0964225,0.322107 0.213008,0.419428 0.116785,0.0970214 0.279985,0.145632 0.489599,0.145632 0.211311,0 0.368222,-0.0431206 0.470334,-0.129062 0.102212,-0.0863411 0.153318,-0.186956 0.153318,-0.303042 0,-0.103709 -0.045117,-0.185359 -0.135551,-0.245348 -0.0629841,-0.0409247 -0.219895,-0.0928291 -0.470135,-0.155713 -0.337279,-0.0855425 -0.570849,-0.159007 -0.701708,-0.220893 -0.129961,-0.0622854 -0.229078,-0.148327 -0.296654,-0.258724 -0.0667771,-0.109099 -0.100615,-0.231174 -0.100615,-0.363631 0,-0.121476 0.0275493,-0.233271 0.0834464,-0.33658 0.0550986,-0.102711 0.13026,-0.188653 0.225784,-0.256628 0.0713686,-0.0526032 0.168989,-0.0976203 0.292562,-0.133854 0.123373,-0.0368322 0.255729,-0.0552982 0.397668,-0.0552982 0.212908,0 0.399565,0.0307434 0.560967,0.0921304 0.160505,0.061387 0.279585,0.144135 0.356045,0.249541 0.0769583,0.104108 0.129661,0.244849 0.158908,0.420127l-0.449972 0.061387c-0.0204623,-0.139643 -0.0797532,-0.248942 -0.177374,-0.327298 -0.0982192,-0.0779565 -0.236764,-0.117484 -0.415535,-0.117484 -0.211211,0 -0.361834,0.0347361 -0.452467,0.104807 -0.0904335,0.070071 -0.135351,0.15192 -0.135351,0.245348 0,0.0595903 0.0187655,0.113391 0.0561966,0.160804 0.0374311,0.0496087 0.0961231,0.0904335 0.176176,0.122774 0.0460153,0.0166693 0.181666,0.0561966 0.406552,0.117584 0.325501,0.08694 0.552483,0.157909 0.681346,0.213607 0.128164,0.0552982 0.229677,0.135351 0.302643,0.241256 0.0730655,0.106005 0.109698,0.236864 0.109698,0.393476 0,0.153418 -0.0444182,0.297652 -0.134253,0.433602 -0.0891359,0.134852 -0.218498,0.240258 -0.387088,0.313822 -0.16839,0.0745628 -0.359339,0.111395 -0.572347,0.111395 -0.352751,0 -0.621656,-0.0730655 -0.806116,-0.219995 -0.18496,-0.14653 -0.303042,-0.36383 -0.354148,-0.651601z"/>
  </g>
  <path class="fil1" d="M12.7898 6.48027c0,3.48519 -2.8254,6.31009 -6.30939,6.31009 -3.48379,0 -6.30929,-2.8249 -6.30929,-6.31009 0,-3.48409 2.8255,-6.30919 6.30929,-6.30919 3.48399,0 6.30939,2.8251 6.30939,6.30919zm-1.36409 2.60151l-8.82885 1.49844 -1.10646 -6.64826 8.82885 -1.49874 1.10646 6.64856z"/>
  <path class="fil2 str0" d="M12.7898 6.48027c0,3.48519 -2.8254,6.31009 -6.30939,6.31009 -3.48379,0 -6.30929,-2.8249 -6.30929,-6.31009 0,-3.48409 2.8255,-6.30919 6.30929,-6.30919 3.48399,0 6.30939,2.8251 6.30939,6.30919"/>
  <polygon class="fil2 str1" points="11.4253,9.08248 2.59652,10.5807 1.49056,3.93196 10.3193,2.43372 "/>
  <polygon class="fil2 str1" points="5.53411,6.61502 3.54378,6.9534 3.23135,5.1088 5.22169,4.77042 "/>
  <line class="fil2 str2" x1="6.76086" y1="5.00898" x2="9.18839" y2= "4.59674" />
  <line class="fil2 str2" x1="7.01639" y1="6.51321" x2="9.44392" y2= "6.10097" />
  <line class="fil2 str2" x1="3.74341" y1="8.71715" x2="9.71542" y2= "7.70302" />
 </g>
</svg>
