<?xml version="1.0" encoding="UTF-8"?>
<!DOCTYPE svg PUBLIC "-//W3C//DTD SVG 1.1//EN" "http://www.w3.org/Graphics/SVG/1.1/DTD/svg11.dtd">
<!-- Creator: CorelDRAW -->
<svg xmlns="http://www.w3.org/2000/svg" xml:space="preserve" width="14.6876mm" height="18.998mm" style="shape-rendering:geometricPrecision; text-rendering:geometricPrecision; image-rendering:optimizeQuality; fill-rule:evenodd; clip-rule:evenodd"
viewBox="0 0 14.6872 18.9975"
 xmlns:xlink="http://www.w3.org/1999/xlink">
 <defs>
  <style type="text/css">
   <![CDATA[
    .str0 {stroke:#00B3CD;stroke-width:0.342691}
    .str2 {stroke:white;stroke-width:0.399989}
    .str1 {stroke:white;stroke-width:0.399989;stroke-linejoin:round}
    .fil2 {fill:none;fill-rule:nonzero}
    .fil1 {fill:#00B3CD;fill-rule:nonzero}
    .fil0 {fill:#231F1F;fill-rule:nonzero}
   ]]>
  </style>
 </defs>
 <g id="Art">
  <metadata id="CorelCorpID_0Corel-Layer"/>
  <g id="_216331128">
   <path id="_216331440" class="fil0" d="M-0 18.9354l0 -3.7535 1.41586 0c0.249393,0 0.439488,0.0118997 0.570984,0.035999 0.184395,0.0305992 0.338991,0.0887976 0.463487,0.175095 0.124397,0.0864976 0.224694,0.207094 0.300592,0.36269 0.0760979,0.154796 0.114197,0.326091 0.114197,0.511886 0,0.318891 -0.101397,0.589484 -0.304792,0.809978 -0.203294,0.221294 -0.569884,0.331791 -1.10097,0.331791l-0.962574 0 0 1.52606 -0.496786 0zm0.496786 -1.96895l0 0 0.970474 0c0.320891,0 0.548885,-0.0598984 0.683381,-0.178995 0.134696,-0.119497 0.202194,-0.288092 0.202194,-0.504386 0,-0.157396 -0.0392989,-0.291492 -0.119197,-0.403789 -0.0787979,-0.111497 -0.183595,-0.185095 -0.313191,-0.221094 -0.0835977,-0.0220994 -0.238194,-0.0332991 -0.463487,-0.0332991l-0.960174 0 0 1.34156z"/>
   <polygon id="_216331512" class="fil0" points="3.48091,18.9354 3.48091,15.1825 3.94189,15.1825 3.94189,18.9354 "/>
   <path id="_216331584" class="fil0" d="M6.48282 18.6004c-0.170595,0.144996 -0.334991,0.247293 -0.492487,0.307292 -0.158196,0.0596984 -0.327891,0.0895976 -0.508586,0.0895976 -0.298492,0 -0.528286,-0.072598 -0.688781,-0.219194 -0.160196,-0.145296 -0.240493,-0.332391 -0.240493,-0.559185 0,-0.133196 0.0302992,-0.254993 0.0911975,-0.36459 0.0602984,-0.110397 0.139696,-0.198595 0.237494,-0.265193 0.0980973,-0.0665982 0.209094,-0.116597 0.331791,-0.151096 0.0906975,-0.0240993 0.226794,-0.0471987 0.409589,-0.0689981 0.37219,-0.0444988 0.646382,-0.0974973 0.821978,-0.158696 0.00149996,-0.0629983 0.00239993,-0.103497 0.00239993,-0.120397 0,-0.188095 -0.0434988,-0.320091 -0.130496,-0.396789 -0.117697,-0.104097 -0.292792,-0.156396 -0.524986,-0.156396 -0.216394,0 -0.37689,0.038099 -0.480087,0.114397 -0.103197,0.0755979 -0.179295,0.209894 -0.228894,0.402889l-0.450588 -0.0612983c0.0408989,-0.193195 0.108397,-0.34889 0.201994,-0.467587 0.0940974,-0.118297 0.229494,-0.209794 0.407289,-0.273393 0.177595,-0.0644982 0.38289,-0.0964974 0.616883,-0.0964974 0.232194,0 0.420889,0.0271993 0.565985,0.0820978 0.144696,0.0546985 0.251793,0.123397 0.319891,0.205794 0.0679981,0.0828977 0.116097,0.187495 0.143596,0.313891 0.0150996,0.0784979 0.0227994,0.220194 0.0227994,0.425088l0 0.614383c0,0.428688 0.00989973,0.699481 0.0291992,0.812678 0.0200995,0.113597 0.0587984,0.222794 0.116697,0.326691l-0.481187 0c-0.0474987,-0.0959974 -0.0783979,-0.207394 -0.0921975,-0.335491zm-0.038299 -1.02917l0 0c-0.167695,0.0680981 -0.418589,0.126297 -0.75268,0.173895 -0.189695,0.0273993 -0.323691,0.0579984 -0.402289,0.0924975 -0.0780979,0.0340991 -0.138996,0.0836977 -0.181495,0.149696 -0.0425988,0.0656982 -0.0641983,0.138296 -0.0641983,0.218894 0,0.122797 0.0466987,0.225294 0.139396,0.307292 0.0932975,0.0817978 0.229494,0.122897 0.408689,0.122897 0.177495,0 0.335291,-0.0389989 0.473587,-0.116297 0.138296,-0.0777979 0.239493,-0.184295 0.304592,-0.318991 0.0496986,-0.103997 0.074398,-0.257693 0.074398,-0.460687l0 -0.169195z"/>
   <path id="_216331656" class="fil0" d="M7.67779 18.9354l0 -2.71893 0.414689 0 0 0.386389c0.199795,-0.298492 0.488087,-0.448088 0.865376,-0.448088 0.163796,0 0.314491,0.0298992 0.452188,0.0880976 0.137296,0.0593984 0.240193,0.136496 0.308292,0.232194 0.0678982,0.0956974 0.116197,0.208594 0.143496,0.340291 0.0166995,0.0856977 0.0254993,0.234594 0.0254993,0.448388l0 1.67165 -0.460887 0 0 -1.65385c0,-0.188195 -0.0178995,-0.328191 -0.0535985,-0.420989 -0.035999,-0.0932975 -0.0995973,-0.167595 -0.191195,-0.223194 -0.0911975,-0.0553985 -0.198195,-0.0829977 -0.320991,-0.0829977 -0.196195,0 -0.36569,0.0623983 -0.508686,0.186795 -0.141996,0.124497 -0.213394,0.36119 -0.213394,0.709181l0 1.48506 -0.460787 0z"/>
   <path id="_216331728" class="fil0" d="M12.5077 18.0604l0.476287 0.0587984c-0.0754979,0.277992 -0.214094,0.494087 -0.417489,0.647882 -0.203194,0.153596 -0.462387,0.230394 -0.778179,0.230394 -0.398089,0 -0.713381,-0.122297 -0.945874,-0.36779 -0.233394,-0.244693 -0.34989,-0.588284 -0.34989,-1.03007 0,-0.457488 0.117697,-0.812678 0.35349,-1.06507 0.235394,-0.252593 0.541085,-0.37909 0.916475,-0.37909 0.36349,0 0.660482,0.124097 0.891176,0.37139 0.230394,0.247393 0.345391,0.595384 0.345391,1.04457 0,0.0269993 -0.000899975,0.0680981 -0.00239993,0.122697l-2.02794 0c0.0169995,0.298792 0.101397,0.527386 0.253693,0.686381 0.151796,0.158896 0.341491,0.238194 0.568285,0.238194 0.168895,0 0.313391,-0.0444988 0.432788,-0.133196 0.119197,-0.0885976 0.213994,-0.230394 0.284192,-0.425088zm-1.51326 -0.74488l0 0 1.51836 0c-0.0204994,-0.228894 -0.0783979,-0.400789 -0.174295,-0.514586 -0.146796,-0.177795 -0.336691,-0.266393 -0.570984,-0.266393 -0.211394,0 -0.389389,0.0704981 -0.533885,0.212494 -0.143796,0.141896 -0.223794,0.331191 -0.239193,0.568485z"/>
   <path id="_216331800" class="fil0" d="M14.6206 18.5234l0.0665982 0.406989c-0.129296,0.0272993 -0.245893,0.0408989 -0.348191,0.0408989 -0.167395,0 -0.296992,-0.0263993 -0.389089,-0.0792978 -0.0921975,-0.0526986 -0.157296,-0.122397 -0.194695,-0.208394 -0.037199,-0.0864976 -0.0561985,-0.267893 -0.0561985,-0.544285l0 -1.56446 -0.337991 0 0 -0.35819 0.337991 0 0 -0.673382 0.458088 -0.276392 0 0.949774 0.463487 0 0 0.35819 -0.463487 0 0 1.59006c0,0.131596 0.00839977,0.215994 0.0243993,0.253493 0.0163996,0.037499 0.0427988,0.0674982 0.0796978,0.0895976 0.036299,0.0218994 0.0890976,0.0332991 0.157196,0.0332991 0.0510986,0 0.118897,-0.00599984 0.202194,-0.0178995z"/>
  </g>
  <path class="fil1" d="M13.4806 6.49172c0,3.4909 -2.83002,6.32093 -6.32093,6.32093 -3.4904,0 -6.32003,-2.83002 -6.32003,-6.32093 0,-3.4901 2.82962,-6.32033 6.32003,-6.32033 3.4909,0 6.32093,2.83022 6.32093,6.32033z"/>
  <path class="fil2 str0" d="M13.4806 6.49172c0,3.4909 -2.83002,6.32093 -6.32093,6.32093 -3.4904,0 -6.32003,-2.83002 -6.32003,-6.32093 0,-3.4901 2.82962,-6.32033 6.32003,-6.32033 3.4909,0 6.32093,2.83022 6.32093,6.32033"/>
  <path class="fil2 str1" d="M3.6349 4.18179c-0.272093,0.294892 -0.555585,0.574984 -0.764979,1.35376 -0.188095,0.702081 0.282492,0.453288 0.968874,0.0953974 0.686981,-0.35789 1.13047,-0.0920975 1.25437,0.428088 0.148996,0.627283 -0.183295,1.67065 -0.148796,2.17864 0.0584984,0.895676 1.04697,1.24317 2.47713,1.40376 1.36146,0.151896 0.983373,0.614083 0.983373,0.614083 0,0 -0.871676,0.593084 -0.631983,2.02584 0.72288,-0.0763979 0.892376,-0.200595 0.892376,-0.200595 0,0 1.47176,-0.610583 2.11534,-1.24587 0.794278,-0.785979 -1.98935,-0.882876 -2.02054,-1.06147 -0.0296992,-0.178695 -0.435788,-0.342191 -0.823978,-0.282192 -0.387989,0.0602984 -0.36509,-0.476887 -0.36509,-0.476887 0,0 -0.268193,-1.22407 1.01487,-0.955874 0,0 0.621283,-0.0779979 0.948874,-0.494987 0.328191,-0.418489 0.506886,-0.429288 0.776379,-0.571084 1.02417,-0.542185 -0.181895,-1.43286 -0.500786,-1.79995 -0.320091,-0.36719 -0.510186,-0.264593 -0.407289,0.130496 0.260693,1.00677 -0.756579,1.17927 -0.756579,1.44826 0,0.269393 -0.298192,0.499786 -0.502886,0.0455988 -0.036899,-0.0829977 -0.323091,0.0819978 -0.587984,-0.236094 -0.223294,-0.268493 -0.559585,-0.761879 0.284192,-1.41796 0.477887,-0.299092 0.417589,-0.417689 0.417589,-0.417689 0,0 0.0299992,-0.447588 -1.01517,-0.0599984 -1.04487,0.388189 -1.29796,-0.236694 -1.40816,-0.479287 -0.189295,-0.418489 -1.72375,-0.541885 -2.19914,-0.0239993"/>
  <path class="fil2 str2" d="M9.86173 1.55486c0,0 1.55146,0.805078 2.08734,2.17664 0.0607983,0.507086 -0.823578,0.129596 -0.972574,0.36839 -0.148596,0.238594 -0.322291,0.315291 -0.842177,-0.0928975 -0.73578,-0.577484 -0.903775,-2.29834 -0.708881,-2.39163 0.339991,-0.163796 0.436288,-0.0604984 0.436288,-0.0604984"/>
  <path class="fil2 str1" d="M5.79884 2.20084c-0.446388,0.321891 -0.238094,0.397489 -0.238094,0.397489 0,0 0.535085,0.147696 0.73488,0.321891 0.197995,0.174395 0.481587,0.447988 0.879576,0.298492 0.396889,-0.148996 0.435888,-0.326991 0.908575,-0.0151996 0.211894,0.140296 0.616483,0.114197 0.144396,-0.35799 -0.471087,-0.471787 -0.128097,-0.781479 -0.528586,-0.920575 -0.400989,-0.138296 -1.45396,-0.0471987 -1.90075,0.275892"/>
 </g>
</svg>
