<?xml version="1.0" encoding="UTF-8"?>
<!DOCTYPE svg PUBLIC "-//W3C//DTD SVG 1.1//EN" "http://www.w3.org/Graphics/SVG/1.1/DTD/svg11.dtd">
<!-- Creator: CorelDRAW -->
<svg xmlns="http://www.w3.org/2000/svg" xml:space="preserve" width="7.986mm" height="7.9866mm" style="shape-rendering:geometricPrecision; text-rendering:geometricPrecision; image-rendering:optimizeQuality; fill-rule:evenodd; clip-rule:evenodd"
viewBox="0 0 7.986 7.9866"
 xmlns:xlink="http://www.w3.org/1999/xlink">
 <defs>
  <style type="text/css">
   <![CDATA[
    .str0 {stroke:white;stroke-width:0.2742;stroke-linejoin:round}
    .str1 {stroke:white;stroke-width:0.2742;stroke-linecap:round;stroke-linejoin:round}
    .fil1 {fill:none;fill-rule:nonzero}
    .fil0 {fill:#6E6E6E;fill-rule:nonzero}
   ]]>
  </style>
 </defs>
 <g id="Art">
  <metadata id="CorelCorpID_0Corel-Layer"/>
  <g id="_216330960">
   <g>
    <path id="_216331032" class="fil0" d="M-0 3.9937c0,2.2047 1.7879,3.9929 3.9935,3.9929 2.2046,0 3.9925,-1.7882 3.9925,-3.9929 0,-2.2063 -1.7879,-3.9937 -3.9925,-3.9937 -2.2056,0 -3.9935,1.7874 -3.9935,3.9937z"/>
   </g>
  </g>
  <path class="fil1 str0" d="M3.2374 3.1226c0,0.434 0.1984,0.8231 0.5077,1.0797 0.2422,0.1999 0.5538,0.3208 0.8931,0.3208 0.7719,0 1.4,-0.6269 1.4,-1.4005 0,-0.7719 -0.6281,-1.3988 -1.4,-1.3988 -0.773,0 -1.4008,0.6269 -1.4008,1.3988"/>
  <line class="fil1 str1" x1="2.2987" y1="6.0295" x2="3.7548" y2= "4.2817" />
 </g>
</svg>
