<?xml version="1.0" encoding="UTF-8"?>
<!DOCTYPE svg PUBLIC "-//W3C//DTD SVG 1.1//EN" "http://www.w3.org/Graphics/SVG/1.1/DTD/svg11.dtd">
<!-- Creator: CorelDRAW -->
<svg xmlns="http://www.w3.org/2000/svg" xml:space="preserve" width="4.3219mm" height="4.1195mm" style="shape-rendering:geometricPrecision; text-rendering:geometricPrecision; image-rendering:optimizeQuality; fill-rule:evenodd; clip-rule:evenodd"
viewBox="0 0 4.3216 4.11921"
 xmlns:xlink="http://www.w3.org/1999/xlink">
 <defs>
  <style type="text/css">
   <![CDATA[
    .fil0 {fill:#EF5762;fill-rule:nonzero}
   ]]>
  </style>
 </defs>
 <g id="Art">
  <metadata id="CorelCorpID_0Corel-Layer"/>
  <g id="_219527720">
   <path id="_219527744" class="fil0" d="M2.37694 3.58095c-0.119092,-0.0631956 -0.313078,-0.0631956 -0.43247,0l-0.976032 0.512664c-0.119392,0.0627956 -0.197486,0.0057996 -0.175188,-0.127191l0.185987 -1.08672c0.0227984,-0.132991 -0.0369974,-0.318078 -0.133791,-0.411871l-0.788745 -0.769347c-0.0970933,-0.0941935 -0.0659954,-0.186387 0.0669953,-0.206186l1.09072 -0.158389c0.132591,-0.0200986 0.29058,-0.134391 0.350076,-0.254882l0.488266 -0.988731c0.0597958,-0.120392 0.156489,-0.120392 0.216285,0l0.488266 0.988731c0.0593959,0.120492 0.216985,0.234784 0.350076,0.254882l1.09052 0.158389c0.132791,0.0197986 0.164089,0.111992 0.0671953,0.206186l-0.788945 0.769347c-0.0965933,0.0937935 -0.156389,0.278881 -0.134091,0.411871l0.186487 1.08672c0.0222985,0.132991 -0.0559961,0.189987 -0.175388,0.127191l-0.976232 -0.512664z"/>
  </g>
 </g>
</svg>
