<?xml version="1.0" encoding="UTF-8"?>
<!DOCTYPE svg PUBLIC "-//W3C//DTD SVG 1.1//EN" "http://www.w3.org/Graphics/SVG/1.1/DTD/svg11.dtd">
<!-- Creator: CorelDRAW -->
<svg xmlns="http://www.w3.org/2000/svg" xml:space="preserve" width="67.8121mm" height="6.4634mm" style="shape-rendering:geometricPrecision; text-rendering:geometricPrecision; image-rendering:optimizeQuality; fill-rule:evenodd; clip-rule:evenodd"
viewBox="0 0 42.0588 4.00877"
 xmlns:xlink="http://www.w3.org/1999/xlink">
 <defs>
  <style type="text/css">
   <![CDATA[
    .str0 {stroke:#EF5762;stroke-width:0.620225;stroke-linecap:round}
    .fil2 {fill:none;fill-rule:nonzero}
    .fil0 {fill:#00B3CD;fill-rule:nonzero}
    .fil1 {fill:white;fill-rule:nonzero}
   ]]>
  </style>
 </defs>
 <g id="Like">
  <metadata id="CorelCorpID_0Corel-Layer"/>
  <path class="fil0" d="M13.5856 3.65945c0,0.188735 -0.154312,0.343109 -0.342923,0.343109l-12.8996 0c-0.188735,0 -0.343109,-0.154374 -0.343109,-0.343109l0 -3.31635c0,-0.188735 0.154374,-0.343109 0.343109,-0.343109l12.8996 0c0.188611,0 0.342923,0.154374 0.342923,0.343109l0 3.31635z"/>
  <path class="fil1" d="M2.41336 1.52085c0.0471992,-0.105314 0.281334,-0.330022 0.329588,-0.416419 0.0957008,-0.172981 0.016374,-0.409225 0.25175,-0.409225 0.104446,0 0.424482,0.264092 -0.0792028,0.947456 0.292684,-0.035787 0.633932,-0.0290886 0.772615,0 0.0827381,0.0180486 0.185013,0.0996082 0.185013,0.201697 0,0.101593 -0.0427956,0.161507 -0.111268,0.203372 0.0883821,0.0276621 0.143272,0.10426 0.143272,0.206969 0,0.101593 -0.0639452,0.163491 -0.156173,0.197604 0.0653097,0.0326859 0.129751,0.100352 0.129751,0.202566 0,0.101593 -0.0800091,0.18706 -0.191712,0.201821 0.0740549,0.0351668 0.113129,0.08249 0.113129,0.143458 0,0.191898 -0.163988,0.239035 -0.296716,0.275132 -0.132728,0.0362212 -0.318238,0.0388881 -0.566576,0.0217699 -0.248462,-0.0174283 -0.567816,-0.130992 -0.92457,-0.172547 0,-0.309679 0,-1.13247 0,-1.13247 0,0 0.256897,-0.147676 0.4011,-0.471185zm-1.22408 1.72795l0 0c0,0.0325618 0.0261115,0.0583632 0.0583632,0.0583632l0.585183 0c0.0320657,0 0.0583632,-0.0258014 0.0583632,-0.0583632l0 -1.37504c0,-0.0320657 -0.0262976,-0.0583632 -0.0583632,-0.0583632l-0.585183 0c-0.0322517,0 -0.0583632,0.0262976 -0.0583632,0.0583632l0 1.37504z"/>
  <polygon class="fil1" points="5.58848,3.16011 5.58848,0.821737 6.06444,0.821737 6.06444,2.76286 7.24808,2.76286 7.24808,3.16011 "/>
  <path class="fil1" d="M7.56787 1.22073l0 -0.41828 0.451896 0 0 0.41828 -0.451896 0zm0 1.93938l0 0 0 -1.70785 0.451896 0 0 1.70785 -0.451896 0z"/>
  <polygon class="fil1" points="8.45014,3.16011 8.45014,0.802448 8.90216,0.802448 8.90216,2.05363 9.43121,1.45226 9.98761,1.45226 9.4038,2.0762 10.0295,3.16011 9.54217,3.16011 9.11285,2.39302 8.90216,2.61332 8.90216,3.16011 "/>
  <path class="fil1" d="M11.2707 2.61642l0.450284 0.0756675c-0.057867,0.165104 -0.14935,0.290824 -0.274326,0.377159 -0.124789,0.0863354 -0.281148,0.129441 -0.468642,0.129441 -0.297026,0 -0.516772,-0.0970653 -0.659424,-0.291134 -0.112509,-0.155428 -0.168825,-0.351606 -0.168825,-0.588594 0,-0.283071 0.0740549,-0.504615 0.221855,-0.664882 0.147986,-0.160328 0.33517,-0.240461 0.561242,-0.240461 0.254106,0 0.454687,0.0839165 0.601557,0.251625 0.146931,0.167895 0.217079,0.424792 0.210691,0.771188l-1.13216 0c0.00310113,0.133969 0.0395084,0.238229 0.109222,0.312718 0.0697133,0.0745511 0.156731,0.111765 0.260681,0.111765 0.0706437,0 0.130185,-0.019289 0.178439,-0.057867 0.0482535,-0.03864 0.0846608,-0.100725 0.109408,-0.186626zm0.0256773 -0.456672l0 0c-0.00328719,-0.130681 -0.0370275,-0.230104 -0.101283,-0.298266 -0.0644414,-0.0681628 -0.142528,-0.102089 -0.234817,-0.102089 -0.0986779,0 -0.180051,0.035787 -0.244431,0.107671 -0.0643174,0.0718841 -0.0960109,0.169446 -0.0949565,0.292684l0.675488 0z"/>
 </g>
 <g id="Remove">
  <metadata id="CorelCorpID_1Corel-Layer"/>
  <g id="_496338040">
   <g>
    <polygon id="_496338064" class="fil2" points="-0,4.00877 38.5393,4.00877 38.5393,0.0112261 -0,0.0112261 "/>
   </g>
   <path id="_496338136" class="fil0" d="M38.5393 3.43103c0,0.317928 -0.260371,0.57774 -0.577492,0.57774l-37.3842 0c-0.317431,0 -0.577616,-0.259812 -0.577616,-0.57774l0 -2.84237c0,-0.317121 0.260185,-0.57743 0.577616,-0.57743l37.3842 0c0.317121,0 0.577492,0.260309 0.577492,0.57743l0 2.84237z"/>
  </g>
  <path class="fil1" d="M1.47794 3.19435l0 -2.35754 1.04533 0c0.21007,0 0.36984,0.0212117 0.479248,0.0635111 0.109222,0.0422994 0.196673,0.117161 0.262045,0.224398 0.0654958,0.107175 0.0981817,0.225576 0.0981817,0.355389 0,0.167275 -0.0541457,0.308252 -0.162499,0.422932 -0.108291,0.11468 -0.275566,0.187618 -0.501762,0.218754 0.082614,0.0396944 0.145319,0.0787066 0.188238,0.117347 0.0910491,0.0836684 0.177384,0.188114 0.258944,0.313524l0.410031 0.641685 -0.392479 0 -0.311973 -0.490474c-0.0911731,-0.141411 -0.166158,-0.249703 -0.225142,-0.324874 -0.0589834,-0.0749853 -0.111703,-0.12758 -0.158406,-0.157599 -0.046703,-0.0300809 -0.0941502,-0.0509205 -0.142342,-0.0627048 -0.0353528,-0.00750473 -0.0932199,-0.0112261 -0.173663,-0.0112261l-0.361777 0 0 1.04688 -0.311973 0zm0.311973 -1.31699l0 0 0.67065 0c0.142528,0 0.254106,-0.0148234 0.334364,-0.0442221 0.0804432,-0.0295848 0.141597,-0.0767219 0.183463,-0.141597 0.0416791,-0.0648756 0.0627048,-0.135333 0.0627048,-0.211435 0,-0.111579 -0.0404387,-0.203248 -0.121502,-0.275132 -0.0809394,-0.0716981 -0.208706,-0.107671 -0.383609,-0.107671l-0.746069 0 0 0.780058z"/>
  <path class="fil1" d="M4.96745 2.64446l0.299073 0.0369034c-0.0471371,0.174718 -0.134589,0.310423 -0.262169,0.406868 -0.127642,0.0965071 -0.290514,0.144699 -0.488924,0.144699 -0.249765,0 -0.447803,-0.0768459 -0.594238,-0.230724 -0.146311,-0.153754 -0.219436,-0.369592 -0.219436,-0.647329 0,-0.287226 0.0739309,-0.510197 0.221917,-0.668913 0.147986,-0.158716 0.339822,-0.238105 0.575693,-0.238105 0.228429,0 0.414869,0.0778383 0.559753,0.233267 0.144699,0.155428 0.217017,0.374244 0.217017,0.656012 0,0.0173043 -0.000620225,0.0429816 -0.00155056,0.0773421l-1.27376 0c0.0107299,0.18768 0.0638212,0.331262 0.159212,0.430871 0.0953907,0.0997323 0.214412,0.14966 0.357064,0.14966 0.106121,0 0.196736,-0.0278481 0.271721,-0.0836684 0.0751713,-0.0557583 0.134589,-0.144761 0.178625,-0.266883zm-0.950433 -0.468022l0 0 0.953535 0c-0.0129007,-0.143644 -0.0493079,-0.251501 -0.109408,-0.323199 -0.0921035,-0.111579 -0.211621,-0.167275 -0.35849,-0.167275 -0.133038,0 -0.244741,0.0444702 -0.335294,0.133473 -0.0905529,0.0890024 -0.140853,0.2079 -0.150343,0.357002z"/>
  <path class="fil1" d="M5.61335 3.19435l0 -1.70785 0.258944 0 0 0.239593c0.0535255,-0.0835444 0.124913,-0.150777 0.213916,-0.201821 0.0888783,-0.0508585 0.190285,-0.0764118 0.30391,-0.0764118 0.126526,0 0.230104,0.0262976 0.311167,0.0788927 0.0809394,0.0524711 0.138062,0.125906 0.171182,0.22018 0.135209,-0.199278 0.311043,-0.299073 0.527502,-0.299073 0.169446,0 0.299693,0.0470131 0.390866,0.140853 0.0911731,0.0938401 0.136636,0.238229 0.136636,0.433352l0 1.17229 -0.287847 0 0 -1.07584c0,-0.115734 -0.0093654,-0.199154 -0.0280342,-0.250013 -0.0188549,-0.0509205 -0.0529052,-0.0919794 -0.102213,-0.123115 -0.0493699,-0.0311353 -0.107237,-0.0465169 -0.173663,-0.0465169 -0.120138,0 -0.219746,0.0398185 -0.299073,0.119641 -0.0793889,0.0800091 -0.119021,0.207776 -0.119021,0.383609l0 0.992237 -0.289583 0 0 -1.10958c0,-0.128697 -0.0235065,-0.225142 -0.0706437,-0.289583 -0.0471371,-0.0642554 -0.124479,-0.096321 -0.231716,-0.096321 -0.0813736,0 -0.156669,0.0213358 -0.225948,0.0642554 -0.0690311,0.0429816 -0.119145,0.105686 -0.150281,0.188114 -0.0311353,0.0826761 -0.046703,0.201511 -0.046703,0.357126l0 0.885992 -0.289397 0z"/>
  <path class="fil1" d="M8.23275 2.34042c0,-0.316191 0.087948,-0.550512 0.263782,-0.702715 0.146869,-0.126526 0.325928,-0.189851 0.537115,-0.189851 0.234817,0 0.426839,0.077032 0.575879,0.230786 0.148916,0.153878 0.223467,0.366429 0.223467,0.637654 0,0.21987 -0.032996,0.392727 -0.098988,0.518633 -0.0658059,0.12603 -0.161817,0.223901 -0.287847,0.293429 -0.125906,0.0697133 -0.263472,0.10457 -0.412512,0.10457 -0.239035,0 -0.432297,-0.0765358 -0.579601,-0.22998 -0.147552,-0.153258 -0.221296,-0.374058 -0.221296,-0.662525zm0.297522 0l0 0c0,0.218754 0.0477574,0.382431 0.143148,0.491405 0.0953907,0.108726 0.215528,0.163181 0.360227,0.163181 0.143644,0 0.263286,-0.0547659 0.358676,-0.163988 0.0953907,-0.109408 0.143148,-0.276186 0.143148,-0.500274 0,-0.211125 -0.0479434,-0.371267 -0.143954,-0.479992 -0.0960109,-0.108788 -0.215218,-0.163243 -0.35787,-0.163243 -0.144699,0 -0.264836,0.0541457 -0.360227,0.162437 -0.0953907,0.108291 -0.143148,0.271845 -0.143148,0.490474z"/>
  <path class="fil1" d="M10.6301 3.19435l-0.64981 -1.70785 0.305647 0 0.366553 1.02275c0.0396944,0.110462 0.0762877,0.225328 0.109408,0.344163 0.0258634,-0.0900567 0.0617745,-0.198348 0.107857,-0.324688l0.379516 -1.04223 0.297522 0 -0.646585 1.70785 -0.270108 0z"/>
  <path class="fil1" d="M12.9586 2.64446l0.299073 0.0369034c-0.0471371,0.174718 -0.134589,0.310423 -0.262231,0.406868 -0.12758,0.0965071 -0.290452,0.144699 -0.488862,0.144699 -0.249765,0 -0.447865,-0.0768459 -0.594114,-0.230724 -0.146435,-0.153754 -0.21956,-0.369592 -0.21956,-0.647329 0,-0.287226 0.0739309,-0.510197 0.221917,-0.668913 0.147986,-0.158716 0.339822,-0.238105 0.575693,-0.238105 0.228429,0 0.414869,0.0778383 0.559753,0.233267 0.144699,0.155428 0.217017,0.374244 0.217017,0.656012 0,0.0173043 -0.000620225,0.0429816 -0.00155056,0.0773421l-1.27376 0c0.0107299,0.18768 0.0638212,0.331262 0.159212,0.430871 0.0955147,0.0997323 0.214412,0.14966 0.357064,0.14966 0.106121,0 0.196736,-0.0278481 0.271721,-0.0836684 0.0751093,-0.0557583 0.134589,-0.144761 0.178625,-0.266883zm-0.950433 -0.468022l0 0 0.953535 0c-0.0129007,-0.143644 -0.0493079,-0.251501 -0.109222,-0.323199 -0.0922895,-0.111579 -0.211807,-0.167275 -0.358676,-0.167275 -0.133038,0 -0.244741,0.0444702 -0.335294,0.133473 -0.0906149,0.0890024 -0.140667,0.2079 -0.150343,0.357002z"/>
  <path class="fil1" d="M14.5755 3.19435l0 -1.48271 -0.255781 0 0 -0.225142 0.255781 0 0 -0.181788c0,-0.11468 0.0101097,-0.199961 0.0305151,-0.255657 0.0278481,-0.0749853 0.0768459,-0.135829 0.147179,-0.18247 0.0702095,-0.046703 0.168515,-0.0700235 0.295041,-0.0700235 0.0815596,0 0.171616,0.00961349 0.270294,0.0289025l-0.0436018 0.252556c-0.0599138,-0.0107299 -0.116664,-0.0160018 -0.170376,-0.0160018 -0.0878859,0 -0.149971,0.0186688 -0.186564,0.0561304 -0.0364072,0.0376477 -0.0545798,0.107857 -0.0545798,0.210691l0 0.157661 0.332813 0 0 0.225142 -0.332813 0 0 1.48271 -0.287909 0z"/>
  <path class="fil1" d="M15.4051 3.19435l0 -1.70785 0.260433 0 0 0.258882c0.0666122,-0.121068 0.127953,-0.201015 0.184269,-0.239593 0.0563165,-0.03864 0.118091,-0.0579291 0.185633,-0.0579291 0.0975615,0 0.196798,0.0311353 0.297646,0.0932199l-0.0997323 0.268744c-0.0707677,-0.0418652 -0.141597,-0.0628909 -0.212365,-0.0628909 -0.063201,0 -0.120014,0.019165 -0.170438,0.0571228 -0.0503623,0.0381439 -0.0863354,0.090863 -0.107795,0.158406 -0.0320657,0.103019 -0.0482535,0.215528 -0.0482535,0.337837l0 0.894055 -0.289397 0z"/>
  <path class="fil1" d="M16.381 2.34042c0,-0.316191 0.0878859,-0.550512 0.26372,-0.702715 0.146931,-0.126526 0.325866,-0.189851 0.537177,-0.189851 0.234755,0 0.426653,0.077032 0.575693,0.230786 0.149102,0.153878 0.223467,0.366429 0.223467,0.637654 0,0.21987 -0.0328099,0.392727 -0.0988019,0.518633 -0.065992,0.12603 -0.162003,0.223901 -0.287847,0.293429 -0.126092,0.0697133 -0.263472,0.10457 -0.412512,0.10457 -0.239159,0 -0.432421,-0.0765358 -0.579787,-0.22998 -0.147366,-0.153258 -0.22111,-0.374058 -0.22111,-0.662525zm0.297522 0l0 0c0,0.218754 0.0475713,0.382431 0.143148,0.491405 0.0953907,0.108726 0.215528,0.163181 0.360227,0.163181 0.143582,0 0.2631,-0.0547659 0.358614,-0.163988 0.0953907,-0.109408 0.143024,-0.276186 0.143024,-0.500274 0,-0.211125 -0.0479434,-0.371267 -0.143954,-0.479992 -0.0958248,-0.108788 -0.215156,-0.163243 -0.357684,-0.163243 -0.144699,0 -0.264836,0.0541457 -0.360227,0.162437 -0.0955767,0.108291 -0.143148,0.271845 -0.143148,0.490474z"/>
  <path class="fil1" d="M18.3038 3.19435l0 -1.70785 0.258944 0 0 0.239593c0.0536495,-0.0835444 0.124913,-0.150777 0.213916,-0.201821 0.0890024,-0.0508585 0.190347,-0.0764118 0.30391,-0.0764118 0.126526,0 0.23029,0.0262976 0.311229,0.0788927 0.0808774,0.0524711 0.138,0.125906 0.171306,0.22018 0.135023,-0.199278 0.310857,-0.299073 0.527502,-0.299073 0.169446,0 0.299693,0.0470131 0.39068,0.140853 0.0911731,0.0938401 0.136822,0.238229 0.136822,0.433352l0 1.17229 -0.287909 0 0 -1.07584c0,-0.115734 -0.00948945,-0.199154 -0.0281582,-0.250013 -0.0187928,-0.0509205 -0.0527192,-0.0919794 -0.102089,-0.123115 -0.0493079,-0.0311353 -0.107175,-0.0465169 -0.173787,-0.0465169 -0.119952,0 -0.219684,0.0398185 -0.299073,0.119641 -0.0793268,0.0800091 -0.119021,0.207776 -0.119021,0.383609l0 0.992237 -0.289397 0 0 -1.10958c0,-0.128697 -0.0236926,-0.225142 -0.0708297,-0.289583 -0.0471371,-0.0642554 -0.124355,-0.096321 -0.23153,-0.096321 -0.0815596,0 -0.156855,0.0213358 -0.225948,0.0642554 -0.0692172,0.0429816 -0.119331,0.105686 -0.150467,0.188114 -0.0309492,0.0826761 -0.0465169,0.201511 -0.0465169,0.357126l0 0.885992 -0.289583 0z"/>
  <polygon class="fil1" points="21.9861,3.19435 21.9861,0.836808 23.5765,0.836808 23.5765,1.11504 22.2981,1.11504 22.2981,1.84511 23.4045,1.84511 23.4045,2.12334 22.2981,2.12334 22.2981,3.19435 "/>
  <path class="fil1" d="M25.0462 2.98366c-0.107237,0.0911731 -0.21038,0.155615 -0.309492,0.192952 -0.0992981,0.0376477 -0.205729,0.0563165 -0.319292,0.0563165 -0.18768,0 -0.331883,-0.0457106 -0.432607,-0.13738 -0.100787,-0.0916693 -0.151211,-0.20883 -0.151211,-0.351482 0,-0.0836064 0.0191029,-0.159956 0.0571228,-0.229049 0.0380818,-0.0692792 0.0878859,-0.124665 0.149536,-0.166531 0.0615884,-0.0418652 0.131116,-0.0734347 0.208334,-0.0948945 0.0568126,-0.0149474 0.142528,-0.0293987 0.257332,-0.0434158 0.233577,-0.0278481 0.405689,-0.0611542 0.516152,-0.0997323 0.00111641,-0.0396944 0.00155056,-0.0647515 0.00155056,-0.0754814 0,-0.117967 -0.0272279,-0.201201 -0.0819938,-0.249269 -0.0739309,-0.0654958 -0.183897,-0.0981817 -0.329712,-0.0981817 -0.136015,0 -0.236492,0.0238167 -0.30143,0.071574 -0.0648756,0.0477574 -0.112943,0.132108 -0.143892,0.2533l-0.283071 -0.038578c0.0256773,-0.121192 0.0680387,-0.219064 0.12696,-0.293429 0.0589834,-0.0745511 0.144264,-0.131984 0.255657,-0.172113 0.111579,-0.0403147 0.240709,-0.06041 0.387641,-0.06041 0.145753,0 0.26434,0.0173043 0.355513,0.0515407 0.0910491,0.0343605 0.158095,0.0774662 0.200891,0.129441 0.0429816,0.0519749 0.0730005,0.117657 0.0901188,0.196984 0.00961349,0.0493699 0.0144513,0.138372 0.0144513,0.267007l0 0.385904c0,0.269178 0.00620225,0.439306 0.0185447,0.51057 0.0122805,0.0713879 0.0367173,0.139675 0.0731246,0.205047l-0.30236 0c-0.0300189,-0.0599138 -0.0493079,-0.130247 -0.057867,-0.210691zm-0.0241268 -0.646523l0 0c-0.105004,0.0429816 -0.262665,0.0795129 -0.472736,0.109532 -0.119021,0.0171182 -0.203186,0.0364072 -0.252494,0.057743 -0.0493699,0.0214598 -0.0874518,0.0529052 -0.114246,0.0941502 -0.0267317,0.041245 -0.0403147,0.0871417 -0.0403147,0.137566 0,0.077156 0.0293987,0.141411 0.0877619,0.192952 0.0585493,0.0514787 0.143954,0.077156 0.256463,0.077156 0.111579,0 0.210691,-0.0244369 0.297522,-0.0731246 0.0869556,-0.0488738 0.150591,-0.11561 0.19134,-0.200271 0.0311353,-0.0653718 0.046703,-0.161817 0.046703,-0.289397l0 -0.106307z"/>
  <path class="fil1" d="M26.2213 3.19435l-0.649748 -1.70785 0.305585 0 0.366739 1.02275c0.0395084,0.110462 0.0759156,0.225328 0.109222,0.344163 0.0258634,-0.0900567 0.0616504,-0.198348 0.107857,-0.324688l0.379516 -1.04223 0.297522 0 -0.646523 1.70785 -0.27017 0z"/>
  <path class="fil1" d="M27.2727 2.34042c0,-0.316191 0.087948,-0.550512 0.263782,-0.702715 0.146869,-0.126526 0.32599,-0.189851 0.537115,-0.189851 0.234817,0 0.426839,0.077032 0.575755,0.230786 0.14904,0.153878 0.223591,0.366429 0.223591,0.637654 0,0.21987 -0.032996,0.392727 -0.098988,0.518633 -0.06593,0.12603 -0.161817,0.223901 -0.287847,0.293429 -0.125906,0.0697133 -0.26341,0.10457 -0.412512,0.10457 -0.238973,0 -0.432235,-0.0765358 -0.579787,-0.22998 -0.147304,-0.153258 -0.22111,-0.374058 -0.22111,-0.662525zm0.297522 0l0 0c0,0.218754 0.0477574,0.382431 0.143148,0.491405 0.0953907,0.108726 0.215528,0.163181 0.360227,0.163181 0.143768,0 0.263286,-0.0547659 0.358676,-0.163988 0.0953907,-0.109408 0.143148,-0.276186 0.143148,-0.500274 0,-0.211125 -0.0480675,-0.371267 -0.143954,-0.479992 -0.0960109,-0.108788 -0.215156,-0.163243 -0.35787,-0.163243 -0.144699,0 -0.264836,0.0541457 -0.360227,0.162437 -0.0953907,0.108291 -0.143148,0.271845 -0.143148,0.490474z"/>
  <path class="fil1" d="M30.3152 3.19435l0 -0.250819c-0.132914,0.192952 -0.313524,0.289397 -0.541953,0.289397 -0.100849,0 -0.194813,-0.019289 -0.282265,-0.057867 -0.0874518,-0.038578 -0.152203,-0.0871417 -0.194689,-0.145505 -0.0421753,-0.0584873 -0.0720082,-0.129937 -0.0891264,-0.214722 -0.0118463,-0.0568126 -0.0177384,-0.146869 -0.0177384,-0.270108l0 -1.05823 0.289397 0 0 0.94727c0,0.151087 0.00607821,0.25299 0.0177384,0.305585 0.0183587,0.0761017 0.0569367,0.135891 0.115796,0.179307 0.0589834,0.0434158 0.131922,0.0649996 0.218754,0.0649996 0.0868316,0 0.168391,-0.0222661 0.244431,-0.0666122 0.0761017,-0.0446562 0.130123,-0.105128 0.161693,-0.18185 0.0315695,-0.0765978 0.0474472,-0.187804 0.0474472,-0.333619l0 -0.915081 0.289459 0 0 1.70785 -0.258944 0z"/>
  <path class="fil1" d="M31.0078 3.19435l0 -1.70785 0.260433 0 0 0.258882c0.0666122,-0.121068 0.127953,-0.201015 0.184269,-0.239593 0.0561304,-0.03864 0.118091,-0.0579291 0.185633,-0.0579291 0.0976855,0 0.196798,0.0311353 0.297522,0.0932199l-0.0996082 0.268744c-0.0708297,-0.0418652 -0.141597,-0.0628909 -0.212241,-0.0628909 -0.063325,0 -0.120138,0.019165 -0.170562,0.0571228 -0.0504243,0.0381439 -0.0863354,0.090863 -0.107795,0.158406 -0.0320657,0.103019 -0.0482535,0.215528 -0.0482535,0.337837l0 0.894055 -0.289397 0z"/>
  <path class="fil1" d="M32.0929 1.16968l0 -0.332875 0.289583 0 0 0.332875 -0.289583 0zm0 2.02466l0 0 0 -1.70785 0.289583 0 0 1.70785 -0.289583 0z"/>
  <path class="fil1" d="M33.4386 2.93546l0.0418652 0.255781c-0.0815596,0.0171182 -0.154498,0.0256773 -0.218754,0.0256773 -0.105066,0 -0.186564,-0.0166841 -0.244493,-0.0498041 -0.057867,-0.0333061 -0.0986158,-0.077032 -0.122122,-0.131178 -0.0236926,-0.0541457 -0.0354769,-0.168019 -0.0354769,-0.341682l0 -0.982623 -0.212241 0 0 -0.225142 0.212241 0 0 -0.422932 0.287847 -0.173663 0 0.596595 0.291134 0 0 0.225142 -0.291134 0 0 0.998625c0,0.082614 0.00514787,0.135705 0.0152575,0.159336 0.0102957,0.0235065 0.0269178,0.0423614 0.0499281,0.0561924 0.0230724,0.0140171 0.0560064,0.0210256 0.0988019,0.0210256 0.0322517,0 0.0745511,-0.00378338 0.127146,-0.0113501z"/>
  <path class="fil1" d="M34.8776 2.64446l0.299073 0.0369034c-0.0471371,0.174718 -0.134403,0.310423 -0.261983,0.406868 -0.127642,0.0965071 -0.290514,0.144699 -0.488924,0.144699 -0.249765,0 -0.447989,-0.0768459 -0.594238,-0.230724 -0.146435,-0.153754 -0.21956,-0.369592 -0.21956,-0.647329 0,-0.287226 0.0740549,-0.510197 0.221855,-0.668913 0.148172,-0.158716 0.340008,-0.238105 0.575879,-0.238105 0.228305,0 0.414869,0.0778383 0.559567,0.233267 0.144885,0.155428 0.217203,0.374244 0.217203,0.656012 0,0.0173043 -0.000620225,0.0429816 -0.00167461,0.0773421l-1.27376 0c0.0108539,0.18768 0.0639452,0.331262 0.159336,0.430871 0.0953907,0.0997323 0.214412,0.14966 0.35694,0.14966 0.106121,0 0.19686,-0.0278481 0.271845,-0.0836684 0.0749853,-0.0557583 0.134589,-0.144761 0.178439,-0.266883zm-0.950371 -0.468022l0 0 0.953659 0c-0.0129007,-0.143644 -0.0493079,-0.251501 -0.109408,-0.323199 -0.0921035,-0.111579 -0.211745,-0.167275 -0.358614,-0.167275 -0.132914,0 -0.244617,0.0444702 -0.335356,0.133473 -0.0905529,0.0890024 -0.140667,0.2079 -0.150281,0.357002z"/>
  <path class="fil1" d="M35.408 2.68458l0.286296 -0.0449663c0.0160638,0.11468 0.0608441,0.202628 0.134279,0.263782 0.0734347,0.0609682 0.17602,0.0916073 0.307942,0.0916073 0.132914,0 0.23153,-0.0270418 0.295972,-0.0811875 0.0642554,-0.0541457 0.0964451,-0.117657 0.0964451,-0.190595 0,-0.0653718 -0.0284683,-0.116912 -0.085219,-0.154374 -0.0396944,-0.0258634 -0.138372,-0.0585493 -0.295972,-0.0981817 -0.212241,-0.0535255 -0.359483,-0.0999183 -0.441476,-0.139117 -0.0819938,-0.0390742 -0.144078,-0.0932199 -0.186564,-0.162313 -0.0422994,-0.0692172 -0.0634491,-0.145629 -0.0634491,-0.229173 0,-0.0762877 0.0174283,-0.146745 0.052285,-0.211497 0.0348567,-0.0648756 0.0823039,-0.118835 0.142342,-0.161631 0.0449663,-0.0331821 0.106307,-0.0613403 0.184083,-0.0845367 0.0777763,-0.0230104 0.161073,-0.0345466 0.250075,-0.0345466 0.133969,0 0.25175,0.019289 0.353032,0.0579291 0.101283,0.038578 0.176144,0.090863 0.224398,0.156855 0.0480675,0.06593 0.0813736,0.154002 0.0996082,0.264464l-0.283071 0.03864c-0.0127766,-0.087948 -0.0501142,-0.156545 -0.111703,-0.205853 -0.0616504,-0.0493699 -0.148792,-0.0739309 -0.261301,-0.0739309 -0.133038,0 -0.227933,0.021956 -0.284745,0.0658059 -0.0567506,0.044036 -0.0850949,0.0955147 -0.0850949,0.154498 0,0.0375236 0.0116602,0.0712639 0.0352908,0.101345 0.0236926,0.0310733 0.060534,0.0567506 0.110958,0.077156 0.0289645,0.0107299 0.114246,0.0352908 0.255657,0.0739309 0.204798,0.0547659 0.34776,0.0994221 0.428514,0.134279 0.0811255,0.0348567 0.144575,0.0855911 0.190657,0.152017 0.0462068,0.0664261 0.0692172,0.14904 0.0692172,0.247718 0,0.0964451 -0.0281582,0.187308 -0.0844747,0.272589 -0.0563165,0.085157 -0.13738,0.151087 -0.243687,0.19779 -0.106121,0.046703 -0.226258,0.0698374 -0.360227,0.0698374 -0.221855,0 -0.39099,-0.0460207 -0.50722,-0.13831 -0.116416,-0.0921035 -0.190657,-0.228863 -0.222847,-0.410031z"/>
  <line class="fil2 str0" x1="39.89" y1="1.07088" x2="41.7487" y2= "2.93013" />
  <line class="fil2 str0" x1="39.89" y1="2.92982" x2="41.7487" y2= "1.06995" />
 </g>
</svg>
