<?xml version="1.0" encoding="UTF-8"?>
<!DOCTYPE svg PUBLIC "-//W3C//DTD SVG 1.1//EN" "http://www.w3.org/Graphics/SVG/1.1/DTD/svg11.dtd">
<!-- Creator: CorelDRAW -->
<svg xmlns="http://www.w3.org/2000/svg" xml:space="preserve" width="17.338mm" height="20.9374mm" style="shape-rendering:geometricPrecision; text-rendering:geometricPrecision; image-rendering:optimizeQuality; fill-rule:evenodd; clip-rule:evenodd"
viewBox="0 0 17.338 20.9374"
 xmlns:xlink="http://www.w3.org/1999/xlink">
 <defs>
  <style type="text/css">
   <![CDATA[
    .str0 {stroke:#05723A;stroke-width:0.3528}
    .str1 {stroke:white;stroke-width:0.5;stroke-linecap:round;stroke-linejoin:round}
    .fil2 {fill:none;fill-rule:nonzero}
    .fil0 {fill:#05723A;fill-rule:nonzero}
    .fil1 {fill:#231F1F;fill-rule:nonzero}
   ]]>
  </style>
 </defs>
 <g id="Art">
  <metadata id="CorelCorpID_0Corel-Layer"/>
  <g id="_216327984">
   <g>
    <path id="_216328152" class="fil0 str0" d="M15.0632 6.8016c0,3.6591 -2.9661,6.6257 -6.6246,6.6257 -3.6594,0 -6.6255,-2.9666 -6.6255,-6.6257 0,-3.6585 2.9661,-6.6252 6.6255,-6.6252 3.6585,0 6.6246,2.9667 6.6246,6.6252z"/>
   </g>
  </g>
  <g id="_216330072">
   <path id="_216330096" class="fil1" d="M2.5744 15.9107l0.5195 0 0 2.2731c0,0.3957 -0.044,0.7098 -0.1331,0.942 -0.0904,0.2324 -0.2512,0.4218 -0.4852,0.5681 -0.234,0.1452 -0.539,0.2184 -0.9189,0.2184 -0.3692,0 -0.6699,-0.0633 -0.9039,-0.1907 -0.2349,-0.1272 -0.4014,-0.3106 -0.5024,-0.5518 -0.1009,-0.2403 -0.1504,-0.5687 -0.1504,-0.986l0 -2.2731 0.5206 0 0 2.2706c0,0.3418 0.0312,0.5937 0.0957,0.7557 0.0633,0.1614 0.1718,0.2866 0.3263,0.3742 0.1558,0.0872 0.3445,0.1314 0.5689,0.1314 0.3821,0 0.6551,-0.0868 0.818,-0.2604 0.1633,-0.1732 0.2449,-0.5073 0.2449,-1.0009l0 -2.2706z"/>
   <path id="_216330168" class="fil1" d="M3.9547 20.9374l0 -3.9423 0.4401 0 0 0.3702c0.1031,-0.1449 0.2213,-0.2534 0.3512,-0.3263 0.1299,-0.072 0.2889,-0.1084 0.4755,-0.1084 0.2427,0 0.4573,0.063 0.6441,0.1879 0.1857,0.125 0.3265,0.3015 0.4209,0.5303 0.0945,0.2275 0.1414,0.4777 0.1414,0.7497 0,0.2917 -0.0513,0.5547 -0.1564,0.7875 -0.1043,0.234 -0.2567,0.4128 -0.4565,0.5368 -0.1984,0.1244 -0.4087,0.1866 -0.6288,0.1866 -0.1611,0 -0.306,-0.0336 -0.4338,-0.1018 -0.1276,-0.0683 -0.2329,-0.1539 -0.3147,-0.2577l0 1.3875 -0.483 0zm0.437 -2.5011l0 0c0,0.3664 0.0741,0.6375 0.2221,0.8128 0.1493,0.1758 0.3288,0.2634 0.54,0.2634 0.2147,0 0.3986,-0.091 0.5519,-0.273 0.1524,-0.1813 0.2287,-0.4624 0.2287,-0.8434 0,-0.3635 -0.0742,-0.6351 -0.2235,-0.8162 -0.1501,-0.1807 -0.3283,-0.2707 -0.5356,-0.2707 -0.2049,0 -0.3873,0.096 -0.5462,0.2881 -0.1579,0.1926 -0.2374,0.4722 -0.2374,0.839z"/>
   <path id="_216330240" class="fil1" d="M8.9157 19.8452l0 -0.3598c-0.1813,0.2829 -0.4466,0.424 -0.7977,0.424 -0.2267,0 -0.4356,-0.0625 -0.6258,-0.1878 -0.1913,-0.1249 -0.3384,-0.3001 -0.4434,-0.5251 -0.1041,-0.2243 -0.1568,-0.4823 -0.1568,-0.7737 0,-0.2844 0.0474,-0.5427 0.1419,-0.774 0.0953,-0.2318 0.2381,-0.4094 0.4272,-0.5331 0.1887,-0.1235 0.4013,-0.1851 0.6353,-0.1851 0.172,0 0.3253,0.0364 0.4596,0.1084 0.1344,0.0729 0.2426,0.167 0.3273,0.2835l0 -1.4118 0.4802 0 0 3.9345 -0.4478 0zm-1.5275 -1.4224l0 0c0,0.3649 0.0773,0.6376 0.2318,0.8185 0.1533,0.1808 0.3346,0.2712 0.544,0.2712 0.2117,0 0.3908,-0.0867 0.538,-0.259 0.1482,-0.1725 0.2211,-0.4362 0.2211,-0.7905 0,-0.3902 -0.075,-0.6765 -0.2252,-0.8588 -0.1506,-0.1825 -0.3351,-0.2739 -0.5553,-0.2739 -0.2148,0 -0.3939,0.0876 -0.5376,0.2634 -0.1439,0.1754 -0.2168,0.4518 -0.2168,0.8291z"/>
   <path id="_216330312" class="fil1" d="M12.0385 19.4935c-0.1796,0.1521 -0.3522,0.2592 -0.5177,0.3222 -0.1651,0.0627 -0.3433,0.0937 -0.5325,0.0937 -0.3135,0 -0.5536,-0.076 -0.7213,-0.2296 -0.1686,-0.1524 -0.2534,-0.3483 -0.2534,-0.5861 0,-0.1396 0.0324,-0.2674 0.0966,-0.3823 0.0624,-0.1157 0.1461,-0.2082 0.249,-0.278 0.1031,-0.0697 0.219,-0.1221 0.348,-0.1582 0.0945,-0.0254 0.2372,-0.0497 0.4295,-0.0723 0.3894,-0.0468 0.6762,-0.1023 0.8608,-0.1665 0.0023,-0.066 0.0023,-0.1085 0.0023,-0.1262 0,-0.1972 -0.0452,-0.3355 -0.1365,-0.4159 -0.1233,-0.1091 -0.3069,-0.164 -0.5505,-0.164 -0.2267,0 -0.3953,0.0399 -0.5024,0.12 -0.1087,0.0792 -0.1891,0.2201 -0.2406,0.4223l-0.4723 -0.0642c0.043,-0.2025 0.1137,-0.3659 0.2125,-0.4902 0.0978,-0.1241 0.2405,-0.2199 0.4262,-0.2867 0.1858,-0.0676 0.4014,-0.1009 0.6472,-0.1009 0.2427,0 0.44,0.0283 0.5927,0.0859 0.1524,0.0575 0.264,0.1293 0.3349,0.2157 0.0717,0.0869 0.1223,0.1967 0.1503,0.329 0.0171,0.0823 0.0246,0.231 0.0246,0.4456l0 0.6441c0,0.4493 0.0096,0.7332 0.0311,0.8519 0.0207,0.1191 0.0615,0.2334 0.1225,0.3424l-0.5044 0c-0.0506,-0.1006 -0.083,-0.2175 -0.0966,-0.3517zm-0.041 -1.0788l0 0c-0.1759,0.0714 -0.438,0.1324 -0.7888,0.1824 -0.1989,0.0286 -0.3395,0.0607 -0.422,0.0969 -0.0816,0.0357 -0.1461,0.0877 -0.19,0.157 -0.044,0.0689 -0.0677,0.1448 -0.0677,0.2292 0,0.1287 0.0492,0.2363 0.1458,0.3222 0.0989,0.0858 0.2406,0.1287 0.4295,0.1287 0.1857,0 0.3511,-0.0408 0.496,-0.1218 0.1449,-0.0816 0.2511,-0.1932 0.32,-0.3343 0.0514,-0.1091 0.0772,-0.2702 0.0772,-0.483l0 -0.1773z"/>
   <path id="_216330384" class="fil1" d="M14.3441 19.4131l0.0707 0.4266c-0.1364,0.0286 -0.2577,0.043 -0.3648,0.043 -0.1761,0 -0.3113,-0.0277 -0.4082,-0.0832 -0.0966,-0.0552 -0.1651,-0.1284 -0.2038,-0.2184 -0.0396,-0.0908 -0.0602,-0.2808 -0.0602,-0.5706l0 -1.64 -0.3543 0 0 -0.3754 0.3543 0 0 -0.7058 0.4811 -0.2898 0 0.9956 0.4852 0 0 0.3754 -0.4852 0 0 1.6668c0,0.138 0.0085,0.2265 0.0256,0.2658 0.0171,0.0392 0.0452,0.0707 0.0839,0.0938 0.0376,0.0231 0.0921,0.0349 0.1641,0.0349 0.0537,0 0.1246,-0.0063 0.2116,-0.0187z"/>
   <path id="_216330456" class="fil1" d="M16.8226 18.9272l0.4992 0.0618c-0.0795,0.2913 -0.2244,0.5178 -0.4379,0.6789 -0.2125,0.1611 -0.4842,0.2415 -0.8157,0.2415 -0.4167,0 -0.7473,-0.1281 -0.9909,-0.3853 -0.2449,-0.2565 -0.3661,-0.6167 -0.3661,-1.0797 0,-0.4796 0.1224,-0.852 0.3693,-1.1165 0.2467,-0.2649 0.5676,-0.3973 0.9618,-0.3973 0.3799,0 0.6912,0.1299 0.9339,0.3892 0.2406,0.2592 0.3618,0.624 0.3618,1.0949 0,0.0283 -0.0009,0.0714 -0.0032,0.1287l-2.1256 0c0.0183,0.3132 0.1074,0.5527 0.2664,0.7195 0.1588,0.1664 0.3586,0.2496 0.5958,0.2496 0.1768,0 0.3283,-0.0468 0.4539,-0.1396 0.1246,-0.0929 0.2235,-0.2415 0.2973,-0.4457zm-1.5855 -0.7807l0 0 1.591 0c-0.0214,-0.24 -0.0816,-0.4202 -0.1825,-0.5394 -0.1545,-0.1863 -0.3531,-0.2792 -0.5993,-0.2792 -0.2208,0 -0.4078,0.0738 -0.5589,0.2228 -0.1515,0.1486 -0.2353,0.3471 -0.2503,0.5958z"/>
  </g>
  <path class="fil2 str1" d="M5.5534 4.6476c-1.1058,1.4648 -0.9909,3.411 0.249,4.7117 0.6398,0.6736 1.4708,1.0473 2.3286,1.1321 0.0857,0.0096 0.4733,0.0208 0.5827,0.015 0.1708,-0.0081 0.5563,-0.0721 0.5778,-0.0758 0.6559,-0.1365 1.2837,-0.4428 1.8034,-0.9374 1.2975,-1.2342 1.5092,-3.1833 0.6012,-4.6497"/>
  <line class="fil2 str1" x1="4.9104" y1="3.6638" x2="6.7516" y2= "3.2487" />
  <path class="fil2 str1" d="M6.7516 3.2487c0.1286,0.0017 0.2318,0.107 0.2297,0.2363"/>
  <line class="fil2 str1" x1="6.9811" y1="3.485" x2="6.6118" y2= "5.1683" />
 </g>
</svg>
